# Created by Kenney (www.kenney.nl)

mtllib polymap_cap.mtl

g mergedBlocks

v 0.5 -0.5000001 0.5
v 0.5 -0.5000001 -0.5
v -0.5 -0.5000001 0.5
v -0.5 -0.5000001 -0.5
v 0 0.4999999 -3.609557E-16

vn 0 -1 0
vn -0.8944272 0.4472136 0
vn 0 0.4472136 0.8944272
vn 0 0.4472136 -0.8944272
vn 0.8944272 0.4472136 0

vt -0.5 -0.5
vt -0.5 0.5
vt 0.5 -0.5
vt 0.5 0.5
vt -0.5 -0.5000001
vt -3.609557E-16 0.4999999
vt 0.5 -0.5000001
vt 0 0.4999999
vt 3.609557E-16 0.4999999

usemtl _defaultMat(Clone)

f 3/3/1 2/2/1 1/1/1
f 2/2/1 3/3/1 4/4/1
f 3/7/2 5/6/2 4/5/2
f 5/8/3 3/5/3 1/7/3
f 5/8/4 2/5/4 4/7/4
f 1/5/5 2/7/5 5/9/5

