# Blender v2.82 (sub 7) OBJ File: ''
# www.blender.org
mtllib polymap_lonvex.mtl
o template
v -1.500000 -0.500000 0.500000
v 0.500000 0.500000 0.500000
v 0.500000 0.500000 -0.500000
v -0.500000 -0.500000 1.500000
v -0.500000 -0.500000 0.500000
v 0.500000 0.500000 0.500000
v -0.499999 0.500000 -0.499999
vt 0.000000 0.000000
vt 0.000000 0.000000
vt 0.000000 0.000000
vt 0.000000 0.000000
vt 0.000000 0.000000
vt 0.000000 0.000000
vt 0.000000 0.000000
vn 0.0000 1.0000 0.0000
vn 0.0000 -1.0000 0.0000
vn -0.0000 -0.7071 -0.7071
vn -0.4082 0.8165 0.4082
vn 0.7071 -0.7071 -0.0000
g template_template__defaultMat(Clone).002
usemtl _defaultMat(Clone).002
s off
f 2/1/1 3/2/1 7/3/1
f 5/4/2 4/5/2 1/6/2
f 1/6/3 7/3/3 3/2/3 5/4/3
f 7/3/4 1/6/4 4/5/4 6/7/4
f 3/2/5 2/1/5 6/7/5 4/5/5 5/4/5
