# Created by Kenney (www.kenney.nl)

mtllib polymap_fold.mtl

g mergedBlocks

v 0.5 -0.5000001 0.5
v 0.5 -0.5000001 -0.5
v -0.5 -0.5000001 0.5
v -0.5 -0.5000001 -0.5
v 0.5 0.4999999 -9.023893E-17
v -0.5 0.4999999 -9.023893E-17

vn 0 -1 0
vn 1 0 0
vn -1 0 0
vn 0 0.4472136 0.8944272
vn 0 0.4472136 -0.8944272

vt -0.5 -0.5
vt -0.5 0.5
vt 0.5 -0.5
vt 0.5 0.5
vt 9.023893E-17 0.4999999
vt 0.5 -0.5000001
vt -0.5 -0.5000001
vt -9.023893E-17 0.4999999
vt 0.5 0.4999999
vt -0.5 0.4999999

usemtl _defaultMat(Clone)

f 3/3/1 2/2/1 1/1/1
f 2/2/1 3/3/1 4/4/1
f 1/7/2 2/6/2 5/5/2
f 3/6/3 6/8/3 4/7/3
f 5/9/4 3/7/4 1/6/4
f 3/7/4 5/9/4 6/10/4
f 6/9/5 2/7/5 4/6/5
f 2/7/5 6/9/5 5/10/5

