# Blender v2.82 (sub 7) OBJ File: ''
# www.blender.org
mtllib polymap_junction.mtl
o polymap_fold
v 0.500000 -0.500000 0.500000
v -0.500000 -0.500000 -0.500000
v 0.500000 -0.500000 -0.500000
v -0.500000 -0.500000 0.500000
v -0.000000 0.500000 -0.500000
v 0.000000 0.500000 0.500000
vt 0.500000 -0.500000
vt -0.500000 0.500000
vt -0.500000 -0.500000
vt 0.500000 0.500000
vt 0.500000 -0.500000
vt 0.000000 0.500000
vt -0.000000 0.500000
vt -0.500000 -0.500000
vt 0.500000 0.500000
vt -0.500000 -0.500000
vt 0.500000 -0.500000
vt -0.500000 0.500000
vt 0.500000 0.500000
vt -0.500000 -0.500000
vt 0.500000 -0.500000
vt -0.500000 0.500000
vn 0.0000 -1.0000 -0.0000
vn 0.0000 -0.0000 -1.0000
vn 0.0000 -0.0000 1.0000
vn 0.8944 0.4472 -0.0000
vn -0.8944 0.4472 0.0000
g polymap_fold_polymap_fold__defaultMat(Clone).004
usemtl _defaultMat(Clone).004
s 1
f 1/1/1 2/2/1 3/3/1
f 2/2/1 1/1/1 4/4/1
f 3/3/2 2/5/2 5/6/2
f 1/1/3 6/7/3 4/8/3
f 5/9/4 1/10/4 3/11/4
f 1/10/4 5/9/4 6/12/4
f 6/13/5 2/14/5 4/15/5
f 2/14/5 6/13/5 5/16/5
o polymap_slope
v -0.500000 -0.500000 0.500000
v 0.500000 -0.500000 -0.500000
v 0.500000 -0.500000 0.500000
v -0.500000 -0.500000 -0.500000
v -0.500000 0.500000 -0.500000
v 0.500000 0.500000 -0.500000
vt 0.500000 -0.500000
vt -0.500000 0.500000
vt -0.500000 -0.500000
vt 0.500000 0.500000
vt 0.500000 0.500000
vt -0.500000 -0.500000
vt 0.500000 -0.500000
vt -0.500000 0.500000
vt 0.500000 -0.500000
vt 0.500000 0.500000
vt -0.500000 0.500000
vt -0.500000 -0.500000
vt -0.500000 -0.500000
vt 0.500000 -0.500000
vn 0.0000 -1.0000 0.0000
vn 0.0000 0.0000 -1.0000
vn 1.0000 0.0000 0.0000
vn -1.0000 0.0000 0.0000
vn 0.0000 0.7071 0.7071
g polymap_slope_polymap_slope__defaultMat(Clone).005
usemtl _defaultMat(Clone).005
s 1
f 7/17/6 8/18/6 9/19/6
f 8/18/6 7/17/6 10/20/6
f 11/21/7 8/22/7 10/23/7
f 8/22/7 11/21/7 12/24/7
f 9/19/8 8/25/8 12/26/8
f 7/17/9 11/27/9 10/28/9
f 12/26/10 7/29/10 9/30/10
f 7/29/10 12/26/10 11/27/10
