# Created by Kenney (www.kenney.nl)

mtllib slope.mtl

g mergedBlocks

v 0.5 -0.5000001 0.5
v 0.5 -0.5000001 -0.5
v -0.5 -0.5000001 0.5
v -0.5 -0.5000001 -0.5
v -0.5 0.4999999 -0.5
v 0.5 0.4999999 -0.5

vn 0 -1 0
vn 0 0 -1
vn 1 0 0
vn -1 0 0
vn 0 0.7071068 0.7071068

vt -0.5 -0.5
vt -0.5 0.5
vt 0.5 -0.5
vt 0.5 0.5
vt 0.5 -0.5000001
vt -0.5 -0.5000001
vt 0.5 0.4999999
vt -0.5 0.4999999

usemtl _defaultMat(Clone)

f 3/3/1 2/2/1 1/1/1
f 2/2/1 3/3/1 4/4/1
f 5/7/2 2/6/2 4/5/2
f 2/6/2 5/7/2 6/8/2
f 1/6/3 2/5/3 6/7/3
f 3/5/4 5/8/4 4/6/4
f 6/7/5 3/6/5 1/5/5
f 3/6/5 6/7/5 5/8/5

