# Created by Kenney (www.kenney.nl)

mtllib polymap_concave.mtl

g mergedBlocks

v 0.5 0.4999999 -0.5
v 0.5 0.4999999 0.5
v -0.5 -0.5000001 0.5
v 0.5 -0.5000001 0.5
v -0.5 -0.5000001 -0.5
v -0.5 0.4999999 -0.5
v 0.5 -0.5000001 -0.5

vn -0.7071068 0.7071068 0
vn 0 0 1
vn -1 0 0
vn 0 0.7071068 0.7071068
vn 0 0 -1
vn 0 -1 0
vn 1 0 0

vt -0.5 -0.5
vt -0.5 0.5
vt 0.5 0.5
vt 0.5 -0.5000001
vt -0.5 -0.5000001
vt 0.5 0.4999999
vt -0.5 0.4999999
vt 0.5 -0.5

usemtl _defaultMat(Clone)

f 3/3/1 2/2/1 1/1/1
f 2/6/2 3/5/2 4/4/2
f 3/4/3 6/7/3 5/5/3
f 3/5/4 1/6/4 6/7/4
f 6/6/5 7/5/5 5/4/5
f 7/5/5 6/6/5 1/7/5
f 3/8/6 7/2/6 4/1/6
f 7/2/6 3/8/6 5/3/6
f 2/7/7 7/4/7 1/6/7
f 7/4/7 2/7/7 4/5/7

