# Created by Kenney (www.kenney.nl)

mtllib city_tree_a.mtl

g mergedBlocks

v 0.04500001 -0.19 0.04500001
v 0.04500001 -0.19 -0.04500001
v 0.06975 -0.5 0.06975
v 0.06975 -0.5 -0.06975
v -0.04500001 0.08499998 0.04500001
v -0.04500001 -0.19 0.04500001
v -0.04500001 0.08499998 -0.04500001
v -0.04500001 -0.19 -0.04500001
v -0.06975 -0.5 0.06975
v -0.06975 -0.5 -0.06975
v 0.04500001 0.08499998 0.04500001
v 0.04500001 0.08499998 -0.04500001
v 0.25 0.635 -0.08000001
v 0.25 0.635 -0.05382786
v 0.0825 0.635 -0.08000001
v -0.08566321 0.635 -0.05382786
v -0.25 0.635 0.25
v -0.25 0.635 -0.25
v -0.08566321 0.635 0.25
v 0.0825 0.635 -0.25
v -0.3 0.4400001 0.05535082
v -0.3 0.4400001 -0.3
v -0.25 0.4400001 0.05535082
v -0.25 0.4400001 -0.25
v 0.05534229 0.4400001 -0.25
v 0.05534229 0.4400001 -0.3
v -0.3 0.08499998 0.05535082
v -0.3 0.08499998 -0.3
v -0.08566321 0.335 0.25
v -0.25 0.3013605 0.25
v 0.25 0.335 0.25
v -0.0825 0.3013605 0.25
v -0.0825 0.1350001 0.25
v 0.25 0.1350001 0.25
v 0.05534229 0.1350001 -0.25
v 0.25 0.1350001 -0.25
v 0.25 0.475 -0.25
v 0.0825 0.475 -0.25
v -0.25 0.1350001 0.05535082
v 0.05534229 0.1350001 0.05535082
v 0.05534229 0.08499998 0.05535082
v -0.0825 0.1350001 0.0825
v -0.0825 0.08499998 0.0825
v -0.0825 0.08499998 0.3
v -0.0825 0.3013605 0.3
v -0.3 0.3013605 0.3
v -0.3 0.3013605 0.0825
v -0.25 0.3013605 0.0825
v -0.08566321 0.6850001 0.3
v -0.08566321 0.6850001 -0.05382786
v 0.3 0.6850001 0.3
v 0.3 0.6850001 -0.05382786
v 0.0825 0.6850001 -0.08000001
v 0.3 0.6850001 -0.08000001
v 0.25 0.475 -0.08000001
v 0.3 0.475 -0.08000001
v -0.3 0.08499998 0.0825
v -0.3 0.08499998 0.3
v 0.3 0.6850001 -0.3
v 0.0825 0.6850001 -0.3
v 0.3 0.475 -0.3
v 0.0825 0.475 -0.3
v 0.05534229 0.08499998 -0.3
v 0.3 0.335 0.3
v 0.3 0.335 -0.05382786
v -0.08566321 0.335 0.3
v -0.25 0.1350001 0.0825
v 0.25 0.335 -0.05382786

vn 0.9968281 0.07958547 0
vn -1 0 0
vn -0.9968281 0.07958547 0
vn 0 0.07958547 -0.9968281
vn 0 0 1
vn 0 0.07958547 0.9968281
vn 0 0 -1
vn 0 -1 0
vn 1 0 0
vn 0 1 0

vt -0.04500001 -0.19
vt 0.04500001 -0.19
vt -0.06975 -0.5
vt 0.06975 -0.5
vt 0.04500001 0.08499998
vt -0.04500001 0.08499998
vt 0.06975 0.06975
vt 0.06975 -0.06975
vt -0.06975 0.06975
vt -0.06975 -0.06975
vt -0.25 -0.08000001
vt -0.25 -0.05382786
vt -0.0825 -0.08000001
vt 0.08566321 -0.05382786
vt 0.25 0.25
vt 0.25 -0.25
vt 0.08566321 0.25
vt -0.0825 -0.25
vt 0.3 0.05535082
vt 0.3 -0.3
vt 0.25 0.05535082
vt -0.05534229 -0.25
vt -0.05534229 -0.3
vt 0.05535082 0.4400001
vt 0.05535082 0.08499998
vt -0.3 0.4400001
vt -0.3 0.08499998
vt -0.08566321 0.635
vt -0.08566321 0.335
vt -0.25 0.635
vt -0.25 0.3013605
vt 0.25 0.335
vt -0.0825 0.3013605
vt -0.0825 0.1350001
vt 0.25 0.1350001
vt -0.05534229 0.1350001
vt -0.25 0.1350001
vt -0.05534229 0.4400001
vt -0.25 0.475
vt -0.0825 0.475
vt -0.0825 0.635
vt 0.25 0.635
vt 0.25 0.4400001
vt -0.25 0.4400001
vt 0.05534229 0.1350001
vt 0.05534229 0.08499998
vt -0.0825 0.08499998
vt -0.3 0.3013605
vt 0.0825 0.25
vt 0.0825 0.3
vt 0.3 0.3
vt 0.3 0.0825
vt 0.25 0.0825
vt 0.08566321 0.3
vt -0.3 0.3
vt -0.3 -0.05382786
vt 0.0825 0.6850001
vt 0.3 0.6850001
vt 0.0825 0.635
vt 0.25 0.475
vt 0.3 0.475
vt 0.3 -0.0825
vt 0.0825 -0.0825
vt 0.0825 -0.3
vt -0.3 0.6850001
vt -0.0825 0.6850001
vt -0.3 0.475
vt -0.05535082 0.1350001
vt -0.05535082 0.08499998
vt 0.3 0.08499998
vt 0.3 0.4400001
vt 0.3 -0.05535082
vt 0.04500001 0.04500001
vt -0.04500001 0.04500001
vt -0.05534229 0.3
vt -0.04500001 -0.04500001
vt 0.04500001 -0.04500001
vt -0.05534229 -0.05535082
vt -0.08000001 0.635
vt -0.08000001 0.6850001
vt -0.3 0.335
vt 0.05382786 0.335
vt 0.05382786 0.6850001
vt -0.08566321 0.6850001
vt 0.3 0.335
vt 0.0825 0.08499998
vt 0.0825 0.1350001
vt 0.25 0.3013605
vt 0.3 0.3013605
vt -0.25 -0.25
vt -0.3 0.05382786
vt -0.25 0.05382786
vt 0.08566321 -0.25
vt 0.08566321 -0.3
vt -0.3 -0.3
vt 0.08000001 0.475
vt 0.08000001 0.6850001
vt -0.25 0.335
vt 0.05382786 0.635
vt 0.08000001 0.635
vt -0.05382786 0.635
vt -0.05382786 0.6850001
vt -0.0825 -0.3
vt -0.3 -0.08000001
vt 0.0825 0.3013605
vt 0.05535082 0.1350001
vt -0.05534229 0.08499998
vt -0.0825 0.25
vt -0.25 0.25
vt -0.0825 0.3
vt -0.25 0.08000001
vt -0.3 0.08000001
vt -0.05534229 0.25
vt 0.25 -0.0825
vt 0.25 -0.05535082
vt 0.0825 -0.25
vt 0.08566321 0.6850001
vt 0.08566321 0.635

usemtl woodBark(Clone)

f 3/3/1 2/2/1 1/1/1
f 2/2/1 3/3/1 4/4/1
f 7/6/2 6/2/2 5/5/2
f 6/2/2 7/6/2 8/1/2
f 8/1/3 9/4/3 6/2/3
f 9/4/3 8/1/3 10/3/3
f 4/3/4 8/2/4 2/1/4
f 8/2/4 4/3/4 10/4/4
f 6/1/5 11/5/5 5/6/5
f 11/5/5 6/1/5 1/2/5
f 9/3/6 1/2/6 6/1/6
f 1/2/6 9/3/6 3/4/6
f 2/1/7 7/5/7 12/6/7
f 7/5/7 2/1/7 8/2/7
f 4/9/8 9/8/8 10/7/8
f 9/8/8 4/9/8 3/10/8
f 2/2/9 11/6/9 1/1/9
f 11/6/9 2/2/9 12/5/9

usemtl leafsGreen(Clone)

f 15/13/10 14/12/10 13/11/10
f 14/12/10 15/13/10 16/14/10
f 19/17/10 18/16/10 17/15/10
f 16/14/10 18/16/10 19/17/10
f 15/13/10 18/16/10 16/14/10
f 18/16/10 15/13/10 20/18/10
f 23/21/10 22/20/10 21/19/10
f 24/16/10 22/20/10 23/21/10
f 25/22/10 22/20/10 24/16/10
f 22/20/10 25/22/10 26/23/10
f 22/26/2 27/25/2 21/24/2
f 27/25/2 22/26/2 28/27/2
f 17/30/5 29/29/5 19/28/5
f 30/31/5 29/29/5 17/30/5
f 30/31/5 31/32/5 29/29/5
f 32/33/5 31/32/5 30/31/5
f 33/34/5 31/32/5 32/33/5
f 31/32/5 33/34/5 34/35/5
f 25/38/7 36/37/7 35/36/7
f 36/37/7 25/38/7 37/39/7
f 37/39/7 25/38/7 38/40/7
f 38/40/7 18/42/7 20/41/7
f 25/38/7 18/42/7 38/40/7
f 18/42/7 25/38/7 24/43/7
f 21/26/5 39/37/5 23/44/5
f 27/27/5 39/37/5 21/26/5
f 27/27/5 40/45/5 39/37/5
f 40/45/5 27/27/5 41/46/5
f 33/37/9 43/47/9 42/34/9
f 43/47/9 33/37/9 44/27/9
f 44/27/9 33/37/9 45/48/9
f 45/48/9 33/37/9 32/31/9
f 30/15/10 45/50/10 32/49/10
f 45/50/10 30/15/10 46/51/10
f 46/51/10 30/15/10 47/52/10
f 47/52/10 30/15/10 48/53/10
f 51/55/10 50/14/10 49/54/10
f 50/14/10 51/55/10 52/56/10
f 15/59/5 54/58/5 53/57/5
f 13/42/5 54/58/5 15/59/5
f 55/60/5 54/58/5 13/42/5
f 54/58/5 55/60/5 56/61/5
f 43/63/8 58/20/8 57/62/8
f 58/20/8 43/63/8 44/64/8
f 61/67/7 60/66/7 59/65/7
f 60/66/7 61/67/7 62/40/7
f 58/27/5 45/33/5 46/48/5
f 45/33/5 58/27/5 44/47/5
f 41/69/9 35/35/9 40/68/9
f 63/70/9 35/35/9 41/69/9
f 63/70/9 25/43/9 35/35/9
f 25/43/9 63/70/9 26/71/9
f 28/51/8 7/73/8 27/72/8
f 28/51/8 12/74/8 7/73/8
f 63/75/8 12/74/8 28/51/8
f 12/74/8 63/75/8 11/76/8
f 5/77/8 27/72/8 7/73/8
f 11/76/8 27/72/8 5/77/8
f 11/76/8 41/78/8 27/72/8
f 41/78/8 11/76/8 63/75/8
f 53/80/2 20/30/2 15/79/2
f 60/65/2 20/30/2 53/80/2
f 60/65/2 38/39/2 20/30/2
f 38/39/2 60/65/2 62/67/2
f 65/82/9 51/65/9 64/81/9
f 51/65/9 65/82/9 52/83/9
f 66/29/5 51/58/5 49/84/5
f 51/58/5 66/29/5 64/85/5
f 42/87/7 43/86/7 67/35/7
f 67/35/7 47/89/7 48/88/7
f 67/35/7 57/70/7 47/89/7
f 57/70/7 67/35/7 43/86/7
f 68/92/8 65/91/8 31/90/8
f 31/90/8 66/94/8 29/93/8
f 31/90/8 64/95/8 66/94/8
f 64/95/8 31/90/8 65/91/8
f 61/61/9 54/97/9 56/96/9
f 54/97/9 61/61/9 59/58/9
f 34/37/9 68/82/9 31/98/9
f 36/35/9 68/82/9 34/37/9
f 55/96/9 36/35/9 37/60/9
f 36/35/9 55/96/9 68/82/9
f 68/82/9 55/96/9 14/99/9
f 14/99/9 55/96/9 13/100/9
f 19/42/2 50/102/2 16/101/2
f 50/102/2 19/42/2 49/58/2
f 49/58/2 19/42/2 66/85/2
f 66/85/2 19/42/2 29/32/2
f 54/104/10 60/103/10 53/13/10
f 60/103/10 54/104/10 59/95/10
f 17/42/2 48/105/2 30/88/2
f 23/24/2 18/30/2 24/44/2
f 18/30/2 23/24/2 17/42/2
f 17/42/2 23/24/2 48/105/2
f 48/105/2 23/24/2 67/87/2
f 67/87/2 23/24/2 39/106/2
f 63/107/7 22/71/7 26/38/7
f 22/71/7 63/107/7 28/70/7
f 62/110/8 37/109/8 38/108/8
f 61/55/8 37/109/8 62/110/8
f 61/55/8 55/111/8 37/109/8
f 55/111/8 61/55/8 56/112/8
f 35/113/8 36/109/8 40/78/8
f 39/115/8 42/63/8 67/114/8
f 40/78/8 42/63/8 39/115/8
f 40/78/8 33/116/8 42/63/8
f 40/78/8 34/90/8 33/116/8
f 34/90/8 40/78/8 36/109/8
f 14/30/7 65/81/7 68/98/7
f 65/81/7 14/30/7 52/65/7
f 52/65/7 14/30/7 50/117/7
f 50/117/7 14/30/7 16/118/7
f 47/105/2 58/70/2 46/89/2
f 58/70/2 47/105/2 57/86/2

