# Created by Kenney (www.kenney.nl)

mtllib city_house_k.mtl

g mergedBlocks

v 0.01832003 -0.02000007 0.018
v -0.23768 -0.02000007 0.01800001
v 0.01832003 -0.2300001 0.018
v -0.2184799 -0.2300001 0.01800001
v -0.23768 -0.2300001 0.01800001
v 0.27432 -0.02000007 0.274
v 0.08232002 -0.0800001 0.274
v -0.23768 -0.02000007 0.274
v 0.08232002 -0.2000001 0.274
v 0.21032 -0.2000001 0.274
v -0.23768 -0.2300001 0.274
v 0.21032 -0.0800001 0.274
v 0.27432 -0.2300001 0.274
v -0.23768 -0.0800001 0.21
v -0.23768 -0.0800001 0.082
v -0.23768 -0.2000001 0.082
v -0.23768 -0.2000001 0.21
v 0.01832003 -0.2300001 -0.2188
v 0.01832003 -0.02000007 -0.238
v 0.01832003 -0.2300001 -0.238
v -0.23768 -0.4700001 0.274
v -0.23768 -0.3200001 0.21
v -0.23768 -0.2600001 0.274
v -0.23768 -0.3200001 0.082
v -0.23768 -0.4400001 0.082
v -0.23768 -0.2600001 -0.238
v -0.23768 -0.4400001 0.21
v -0.23768 -0.4700001 -0.238
v 0.27432 -0.2600001 0.274
v 0.27432 -0.4700001 0.274
v 0.27432 -0.2300001 -0.238
v 0.27432 -0.02000007 -0.238
v 0.01832003 -0.3200001 -0.238
v -0.04567997 -0.3200001 -0.238
v 0.01832003 -0.4700001 -0.238
v -0.04567997 -0.4700001 -0.238
v 0.21032 -0.3200001 -0.238
v 0.27432 -0.2600001 -0.238
v 0.27432 -0.4700001 -0.238
v 0.21032 -0.4700001 -0.238
v -0.17368 -0.3200001 -0.238
v -0.17368 -0.4700001 -0.238
v 0.01832003 -0.4700001 0.01800001
v 0.01832003 -0.3200001 0.01800001
v 0.27432 -0.3200001 -0.174
v 0.27432 -0.4700001 -0.174
v 0.27432 -0.3200001 0.082
v 0.27432 -0.4700001 0.01800001
v 0.27432 -0.4700001 0.082
v 0.27432 -0.4700001 0.21
v 0.27432 -0.3200001 0.21
v 0.27432 -0.3200001 0.01800001
v 0.24232 -0.0800001 -0.238
v 0.24232 -0.2000001 -0.238
v 0.05032002 -0.2000001 -0.238
v 0.05032002 -0.0800001 -0.238
v 0.21032 -0.3200001 -0.174
v 0.21032 -0.4700001 -0.174
v 0.01832003 0.1599999 0.01800001
v 0.01832002 0.1599999 0.274
v 0.01832002 0.1599999 -0.01399999
v 0.01832003 0.1599999 -0.238
v -0.23768 -0.1820001 0.1012
v -0.22488 -0.1820001 0.1012
v -0.23768 -0.1820001 0.1908
v -0.22488 -0.1820001 0.1908
v -0.22488 -0.09800008 0.1908
v -0.23768 -0.09800008 0.1908
v -0.23768 -0.09800008 0.1012
v -0.22488 -0.09800008 0.1012
v -0.22488 -0.1100001 0.178
v -0.22488 -0.1100001 0.114
v -0.22488 -0.1700001 0.114
v -0.22488 -0.1700001 0.178
v 0.01832003 -0.2600001 0.01800001
v -0.1096811 -0.2600001 0.01800001
v -0.2184799 -0.2600001 0.01800001
v 0.01832003 -0.2600001 -0.2188
v -0.23768 -0.4220001 0.1012
v -0.22488 -0.4220001 0.1012
v -0.23768 -0.4220001 0.1908
v -0.22488 -0.4220001 0.1908
v -0.22488 -0.3380001 0.1908
v -0.23768 -0.3380001 0.1908
v -0.22488 -0.3500001 0.178
v -0.22488 -0.3500001 0.114
v -0.22488 -0.3380001 0.1012
v -0.22488 -0.4100001 0.114
v -0.22488 -0.4100001 0.178
v -0.23768 -0.3380001 0.1012
v -0.23768 -0.5000001 0.274
v 0.27432 -0.5000001 0.274
v -0.23768 -0.5000001 -0.238
v -0.23768 -0.2180001 -0.2188
v -0.23768 -0.2180001 -0.238
v -0.2184799 -0.2180001 -0.2188
v -0.2184799 -0.2180001 -0.238
v -0.23768 -0.2300001 -0.2188
v -0.2184799 -0.2300001 -0.2188
v -0.2184799 -0.2300001 -0.238
v -0.2184799 -0.2600001 -0.2188
v 0.10152 -0.1820001 0.2612
v 0.19112 -0.1820001 0.2612
v 0.10152 -0.1820001 0.274
v 0.19112 -0.1820001 0.274
v 0.19112 -0.09800008 0.274
v 0.19112 -0.09800008 0.2612
v 0.10152 -0.09800008 0.2612
v 0.10152 -0.09800008 0.274
v 0.11432 -0.1100001 0.2612
v 0.11432 -0.1700001 0.2612
v 0.17832 -0.1700001 0.2612
v 0.17832 -0.1100001 0.2612
v -0.04567997 -0.5000001 -0.238
v 0.01832003 -0.5000001 -0.238
v -0.06487998 -0.5000001 -0.2252
v -0.04567997 -0.5000001 -0.2444
v -0.06487998 -0.5000001 -0.2444
v -0.17368 -0.5000001 -0.238
v -0.15448 -0.5000001 -0.2444
v -0.17368 -0.5000001 -0.2444
v -0.15448 -0.5000001 -0.2252
v 0.01832003 -0.5000001 0.01800001
v 0.27432 -0.5000001 0.1908
v 0.26152 -0.5000001 0.1908
v 0.26152 -0.5000001 0.1012
v 0.27432 -0.5000001 0.1012
v 0.27432 -0.5000001 0.01800001
v -0.15448 -0.3380001 -0.2252
v -0.15448 -0.3380001 -0.2444
v -0.06487998 -0.3380001 -0.2444
v -0.06487998 -0.3380001 -0.2252
v -0.04567997 -0.3200001 -0.2444
v -0.17368 -0.3200001 -0.2444
v 0.27432 -0.3380001 0.1012
v 0.27432 -0.3380001 0.1908
v 0.26152 -0.3380001 0.1908
v 0.26152 -0.3380001 0.1012
v 0.06952003 -0.1820001 -0.2252
v 0.06952003 -0.09800008 -0.2252
v 0.06952003 -0.1820001 -0.238
v 0.06952003 -0.09800008 -0.238
v 0.22312 -0.1820001 -0.2252
v 0.22312 -0.1820001 -0.238
v 0.22312 -0.09800008 -0.238
v 0.22312 -0.09800008 -0.2252
v 0.15272 -0.1100001 -0.2252
v 0.13992 -0.1100001 -0.2252
v 0.15272 -0.1700001 -0.2252
v 0.13992 -0.1700001 -0.2252
v 0.21032 -0.1700001 -0.2252
v 0.08232002 -0.1700001 -0.2252
v 0.21032 -0.1100001 -0.2252
v 0.08232002 -0.1100001 -0.2252
v 0.21032 -0.5000001 -0.174
v 0.21032 -0.5000001 -0.238
v 0.27432 -0.5000001 -0.174
v 0.27432 -0.5000001 -0.238
v -0.09687997 -0.3680001 -0.2252
v -0.12248 -0.3680001 -0.2252
v -0.09687997 -0.4700001 -0.2252
v -0.12248 -0.4700001 -0.2252
v -0.2747999 -0.02360007 0.306
v -0.2747999 -0.02360007 -0.01399999
v 0.01832002 0.1824999 0.306
v 0.01832002 0.1824999 -0.01399999
v -0.2632799 -0.03800011 -0.01399999
v -0.2632799 -0.03800011 0.306
v 0.01832002 0.1599999 0.306
v 0.31144 -0.02360007 0.306
v 0.29992 -0.03800011 0.306
v 0.01832003 0.1599999 -0.27
v 0.01832003 0.1824999 -0.27
v 0.31144 -0.02360007 -0.27
v 0.29992 -0.03800011 -0.27

vn 0 0 -1
vn 0 0 1
vn -1 0 0
vn 1 0 0
vn 0 -1 0
vn 0 1 0
vn -0.5751768 0.8180292 0
vn 0.5751768 -0.8180292 0
vn -0.7808688 -0.624695 0
vn 0.7808688 -0.624695 0
vn -0.5751768 -0.8180292 0
vn 0.5751768 0.8180292 0

vt -0.01832003 -0.02000008
vt 0.2376799 -0.02000008
vt -0.01832003 -0.2300001
vt 0.2184799 -0.2300001
vt 0.2376799 -0.2300001
vt 0.27432 -0.02000008
vt 0.08232002 -0.0800001
vt -0.2376799 -0.02000008
vt 0.08232002 -0.2000001
vt 0.21032 -0.2000001
vt -0.2376799 -0.2300001
vt 0.21032 -0.0800001
vt 0.27432 -0.2300001
vt 0.274 -0.2300001
vt 0.21 -0.0800001
vt 0.274 -0.02000008
vt 0.082 -0.0800001
vt 0.082 -0.2000001
vt 0.01800001 -0.02000008
vt 0.21 -0.2000001
vt 0.01800001 -0.2300001
vt 0.018 -0.2300001
vt -0.2188 -0.2300001
vt 0.018 -0.02000008
vt -0.238 -0.02000008
vt -0.238 -0.2300001
vt 0.274 -0.4700001
vt 0.21 -0.3200001
vt 0.274 -0.2600001
vt 0.082 -0.3200001
vt 0.082 -0.4400001
vt -0.238 -0.2600001
vt 0.21 -0.4400001
vt -0.238 -0.4700001
vt -0.2376799 -0.2600001
vt 0.27432 -0.2600001
vt -0.2376799 -0.4700001
vt 0.27432 -0.4700001
vt -0.274 -0.2300001
vt -0.274 -0.02000008
vt 0.238 -0.2300001
vt 0.238 -0.02000008
vt -0.01832003 -0.3200001
vt 0.04567997 -0.3200001
vt -0.01832003 -0.4700001
vt 0.04567997 -0.4700001
vt 0.2376799 -0.2600001
vt -0.21032 -0.3200001
vt -0.27432 -0.2600001
vt -0.27432 -0.4700001
vt -0.21032 -0.4700001
vt 0.17368 -0.3200001
vt 0.17368 -0.4700001
vt 0.2376799 -0.4700001
vt -0.01800001 -0.4700001
vt -0.01800001 -0.3200001
vt 0.238 -0.4700001
vt 0.238 -0.3200001
vt 0.174 -0.3200001
vt 0.174 -0.4700001
vt -0.082 -0.3200001
vt -0.082 -0.4700001
vt -0.21 -0.4700001
vt -0.274 -0.2600001
vt -0.21 -0.3200001
vt -0.274 -0.4700001
vt 0.238 -0.2600001
vt -0.27432 -0.3200001
vt -0.24232 -0.0800001
vt -0.27432 -0.02000008
vt -0.24232 -0.2000001
vt -0.05032002 -0.2000001
vt -0.27432 -0.2300001
vt -0.05032002 -0.0800001
vt 0.21032 -0.3200001
vt 0.27432 -0.3200001
vt 0.21032 -0.4700001
vt -0.174 -0.3200001
vt -0.174 -0.4700001
vt -0.238 -0.3200001
vt -0.01832003 0.238
vt -0.01832003 -0.01800001
vt -0.21032 0.238
vt -0.21032 0.174
vt -0.27432 0.174
vt -0.27432 -0.01800001
vt -0.01832003 0.1599999
vt 0.01832002 0.1599999
vt 0.01800001 0.1599999
vt -0.01399999 0.1599999
vt -0.238 0.1599999
vt 0.2376799 0.1012
vt 0.22488 0.1012
vt 0.2376799 0.1908
vt 0.22488 0.1908
vt 0.22488 -0.09800007
vt 0.2376799 -0.09800007
vt 0.22488 -0.1820001
vt 0.2376799 -0.1820001
vt 0.2376799 -0.1012
vt 0.2376799 -0.1908
vt 0.22488 -0.1012
vt 0.22488 -0.1908
vt -0.2376799 -0.09800007
vt -0.22488 -0.09800007
vt -0.2376799 -0.1820001
vt -0.22488 -0.1820001
vt 0.1908 -0.09800007
vt 0.1012 -0.09800007
vt 0.1012 -0.1820001
vt 0.1908 -0.1820001
vt 0.178 -0.1100001
vt 0.114 -0.1100001
vt 0.114 -0.1700001
vt 0.178 -0.1700001
vt -0.01832003 -0.2600001
vt 0.1096811 -0.2600001
vt 0.2184799 -0.2600001
vt 0.01800001 -0.2600001
vt -0.2188 -0.2600001
vt 0.22488 -0.3380001
vt 0.2376799 -0.3380001
vt 0.22488 -0.4220001
vt 0.2376799 -0.4220001
vt 0.1908 -0.4220001
vt 0.178 -0.3500001
vt 0.1908 -0.3380001
vt 0.114 -0.3500001
vt 0.1012 -0.3380001
vt 0.114 -0.4100001
vt 0.178 -0.4100001
vt 0.1012 -0.4220001
vt -0.2376799 -0.3380001
vt -0.22488 -0.3380001
vt -0.2376799 -0.4220001
vt -0.22488 -0.4220001
vt -0.2376799 -0.5000001
vt 0.27432 -0.5000001
vt 0.274 -0.5000001
vt -0.238 -0.5000001
vt 0.2376799 -0.2188
vt 0.2376799 -0.238
vt 0.2184799 -0.2188
vt 0.2184799 -0.238
vt 0.2376799 0.01800001
vt 0.2184799 0.01800001
vt -0.01832003 -0.238
vt -0.01832003 -0.2188
vt 0.01832003 -0.2600001
vt -0.2184799 -0.2600001
vt 0.01832003 -0.2300001
vt -0.2184799 -0.2300001
vt -0.2376799 -0.2180001
vt -0.2184799 -0.2180001
vt -0.238 -0.2180001
vt -0.2188 -0.2180001
vt 0.2184799 -0.2180001
vt 0.2376799 -0.2180001
vt 0.238 -0.2180001
vt 0.2188 -0.2180001
vt 0.2188 -0.2300001
vt -0.01800001 -0.2600001
vt -0.01800001 -0.2300001
vt 0.2188 -0.2600001
vt 0.1096811 0.01800001
vt -0.01832003 0.01800001
vt -0.10152 0.2612
vt -0.19112 0.2612
vt -0.10152 0.274
vt -0.19112 0.274
vt 0.274 -0.09800007
vt 0.274 -0.1820001
vt 0.2612 -0.09800007
vt 0.2612 -0.1820001
vt -0.10152 -0.2612
vt -0.10152 -0.274
vt -0.19112 -0.2612
vt -0.19112 -0.274
vt -0.274 -0.1820001
vt -0.274 -0.09800007
vt -0.2612 -0.1820001
vt -0.2612 -0.09800007
vt 0.10152 -0.09800007
vt 0.10152 -0.1820001
vt 0.19112 -0.1820001
vt 0.19112 -0.09800007
vt 0.11432 -0.1100001
vt 0.11432 -0.1700001
vt 0.17832 -0.1700001
vt 0.17832 -0.1100001
vt 0.04567997 -0.5000001
vt -0.01832003 -0.5000001
vt 0.06487998 0.2252
vt 0.04567997 0.2444
vt 0.06487998 0.2444
vt 0.17368 0.238
vt 0.15448 0.2444
vt 0.17368 0.2444
vt 0.2376799 0.238
vt 0.2376799 -0.274
vt 0.15448 0.2252
vt 0.04567997 0.238
vt -0.27432 -0.1908
vt -0.26152 -0.1908
vt -0.27432 -0.274
vt -0.26152 -0.1012
vt -0.27432 -0.1012
vt 0.2252 -0.5000001
vt 0.2252 -0.3380001
vt 0.2444 -0.5000001
vt 0.2444 -0.3380001
vt 0.17368 -0.5000001
vt 0.2376799 -0.5000001
vt -0.01800001 -0.5000001
vt 0.238 -0.5000001
vt 0.06487998 -0.5000001
vt 0.06487998 -0.3380001
vt 0.15448 -0.3380001
vt 0.15448 -0.5000001
vt 0.17368 -0.238
vt 0.17368 -0.2444
vt 0.04567997 -0.238
vt 0.04567997 -0.2444
vt -0.2252 -0.3380001
vt -0.2252 -0.5000001
vt -0.2444 -0.3380001
vt -0.2444 -0.5000001
vt -0.17368 -0.4700001
vt -0.17368 -0.5000001
vt -0.17368 -0.3200001
vt -0.2444 -0.3200001
vt -0.04567997 -0.4700001
vt -0.04567997 -0.3200001
vt -0.04567997 -0.5000001
vt 0.2444 -0.3200001
vt -0.1012 -0.5000001
vt -0.1012 -0.3380001
vt -0.274 -0.5000001
vt -0.1908 -0.5000001
vt -0.1908 -0.3380001
vt 0.26152 -0.3380001
vt 0.27432 -0.3380001
vt 0.26152 -0.5000001
vt -0.27432 -0.3380001
vt -0.26152 -0.3380001
vt -0.27432 -0.5000001
vt -0.26152 -0.5000001
vt 0.2252 -0.1820001
vt 0.2252 -0.09800007
vt 0.238 -0.1820001
vt 0.238 -0.09800007
vt -0.06952003 -0.2252
vt -0.06952003 -0.238
vt -0.22312 -0.2252
vt -0.22312 -0.238
vt -0.06952003 0.238
vt -0.06952003 0.2252
vt -0.22312 0.238
vt -0.22312 0.2252
vt -0.2252 -0.09800007
vt -0.2252 -0.1820001
vt -0.238 -0.09800007
vt -0.238 -0.1820001
vt -0.15272 -0.1100001
vt -0.13992 -0.1100001
vt -0.15272 -0.1700001
vt -0.13992 -0.1700001
vt 0.15272 -0.1700001
vt 0.13992 -0.1700001
vt 0.21032 -0.1700001
vt 0.08232002 -0.1700001
vt -0.06952003 -0.09800007
vt -0.21032 -0.1100001
vt -0.22312 -0.09800007
vt -0.21032 -0.1700001
vt -0.22312 -0.1820001
vt -0.08232002 -0.1700001
vt -0.08232002 -0.1100001
vt -0.06952003 -0.1820001
vt -0.174 -0.5000001
vt 0.21032 -0.5000001
vt 0.174 -0.5000001
vt -0.27432 0.238
vt -0.21032 -0.5000001
vt 0.09687997 -0.3680001
vt 0.12248 -0.3680001
vt 0.09687997 -0.4700001
vt 0.12248 -0.4700001
vt 0.2747999 0.306
vt 0.2747999 -0.01399999
vt -0.01832002 0.306
vt -0.01832002 -0.01399999
vt -0.01832002 0.01399999
vt 0.2376799 -0.01800001
vt 0.2632799 0.01399999
vt 0.2632799 -0.306
vt -0.01832002 -0.306
vt -0.01832002 -0.274
vt 0.306 -0.0380001
vt -0.01399999 -0.0380001
vt 0.306 -0.02360007
vt -0.01399999 -0.02360007
vt -0.01832002 0.1824999
vt 0.2747999 -0.02360007
vt -0.01832002 0.1599999
vt 0.2632799 -0.0380001
vt -0.2632799 -0.0380001
vt -0.2747999 -0.02360007
vt 0.01832002 0.1824999
vt 0.31144 -0.02360007
vt 0.29992 -0.0380001
vt -0.01399999 0.1824999
vt -0.27 0.1599999
vt -0.27 0.1824999
vt -0.306 -0.02360007
vt 0.27 -0.02360007
vt -0.306 -0.0380001
vt 0.27 -0.0380001
vt -0.01832003 0.27
vt -0.29992 0.27
vt -0.29992 -0.306
vt 0.01832003 0.1824999
vt -0.01832003 -0.27
vt -0.31144 0.306
vt -0.31144 -0.27
vt -0.01832003 0.1824999
vt -0.31144 -0.02360007
vt -0.29992 -0.0380001

usemtl _defaultMat(Clone)

f 3/3/1 2/2/1 1/1/1
f 4/4/1 2/2/1 3/3/1
f 2/2/1 4/4/1 5/5/1
f 8/8/2 7/7/2 6/6/2
f 8/8/2 9/9/2 7/7/2
f 9/9/2 11/11/2 10/10/2
f 11/11/2 9/9/2 8/8/2
f 12/12/2 6/6/2 7/7/2
f 10/10/2 6/6/2 12/12/2
f 10/10/2 13/13/2 6/6/2
f 13/13/2 10/10/2 11/11/2
f 8/16/3 14/15/3 11/14/3
f 8/16/3 15/17/3 14/15/3
f 15/17/3 2/19/3 16/18/3
f 2/19/3 15/17/3 8/16/3
f 17/20/3 11/14/3 14/15/3
f 16/18/3 11/14/3 17/20/3
f 16/18/3 5/21/3 11/14/3
f 5/21/3 16/18/3 2/19/3
f 1/24/3 18/23/3 3/22/3
f 19/25/3 18/23/3 1/24/3
f 18/23/3 19/25/3 20/26/3
f 23/29/3 22/28/3 21/27/3
f 23/29/3 24/30/3 22/28/3
f 24/30/3 26/32/3 25/31/3
f 26/32/3 24/30/3 23/29/3
f 27/33/3 21/27/3 22/28/3
f 25/31/3 21/27/3 27/33/3
f 25/31/3 28/34/3 21/27/3
f 28/34/3 25/31/3 26/32/3
f 21/37/2 29/36/2 23/35/2
f 29/36/2 21/37/2 30/38/2
f 31/41/4 6/40/4 13/39/4
f 6/40/4 31/41/4 32/42/4
f 35/45/1 34/44/1 33/43/1
f 34/44/1 35/45/1 36/46/1
f 38/49/1 37/48/1 26/47/1
f 39/50/1 37/48/1 38/49/1
f 37/48/1 39/50/1 40/51/1
f 33/43/1 26/47/1 37/48/1
f 34/44/1 26/47/1 33/43/1
f 41/52/1 26/47/1 34/44/1
f 42/53/1 26/47/1 41/52/1
f 26/47/1 42/53/1 28/54/1
f 35/57/4 44/56/4 43/55/4
f 44/56/4 35/57/4 33/58/4
f 46/60/4 39/57/4 45/59/4
f 49/62/4 48/55/4 47/61/4
f 51/65/4 29/64/4 50/63/4
f 52/56/4 47/61/4 48/55/4
f 50/63/4 29/64/4 30/66/4
f 47/61/4 29/64/4 51/65/4
f 52/56/4 29/64/4 47/61/4
f 45/59/4 29/64/4 52/56/4
f 45/59/4 38/67/4 29/64/4
f 38/67/4 45/59/4 39/57/4
f 48/50/1 44/43/1 52/68/1
f 44/43/1 48/50/1 43/45/1
f 32/70/1 53/69/1 19/1/1
f 32/70/1 54/71/1 53/69/1
f 54/71/1 31/73/1 55/72/1
f 31/73/1 54/71/1 32/70/1
f 56/74/1 19/1/1 53/69/1
f 55/72/1 19/1/1 56/74/1
f 55/72/1 20/3/1 19/1/1
f 20/3/1 55/72/1 31/73/1
f 58/77/2 45/76/2 57/75/2
f 45/76/2 58/77/2 46/38/2
f 37/80/3 58/79/3 57/78/3
f 58/79/3 37/80/3 40/34/3
f 37/83/5 44/82/5 33/81/5
f 57/84/5 44/82/5 37/83/5
f 45/85/5 44/82/5 57/84/5
f 44/82/5 45/85/5 52/86/5

usemtl border(Clone)

f 59/87/1 1/1/1 2/2/1
f 60/88/2 8/8/2 6/6/2
f 61/90/3 1/24/3 59/89/3
f 62/91/3 1/24/3 61/90/3
f 1/24/3 62/91/3 19/25/3
f 62/87/1 32/70/1 19/1/1
f 65/94/6 64/93/6 63/92/6
f 64/93/6 65/94/6 66/95/6
f 66/98/1 68/97/1 67/96/1
f 68/97/1 66/98/1 65/99/1
f 70/102/5 68/101/5 69/100/5
f 68/101/5 70/102/5 67/103/5
f 63/106/2 70/105/2 69/104/2
f 70/105/2 63/106/2 64/107/2
f 14/15/3 68/108/3 17/20/3
f 14/15/3 69/109/3 68/108/3
f 15/17/3 69/109/3 14/15/3
f 69/109/3 15/17/3 63/110/3
f 65/111/3 17/20/3 68/108/3
f 63/110/3 17/20/3 65/111/3
f 63/110/3 16/18/3 17/20/3
f 16/18/3 63/110/3 15/17/3
f 67/108/3 71/112/3 66/111/3
f 67/108/3 72/113/3 71/112/3
f 70/109/3 72/113/3 67/108/3
f 72/113/3 70/109/3 73/114/3
f 74/115/3 66/111/3 71/112/3
f 73/114/3 66/111/3 74/115/3
f 73/114/3 64/110/3 66/111/3
f 64/110/3 73/114/3 70/109/3
f 76/117/1 3/3/1 75/116/1
f 3/3/1 76/117/1 4/4/1
f 4/4/1 76/117/1 77/118/1
f 18/23/3 75/119/3 3/22/3
f 75/119/3 18/23/3 78/120/3
f 81/94/6 80/93/6 79/92/6
f 80/93/6 81/94/6 82/95/6
f 82/123/1 84/122/1 83/121/1
f 84/122/1 82/123/1 81/124/1
f 83/127/3 85/126/3 82/125/3
f 83/127/3 86/128/3 85/126/3
f 87/129/3 86/128/3 83/127/3
f 86/128/3 87/129/3 88/130/3
f 89/131/3 82/125/3 85/126/3
f 88/130/3 82/125/3 89/131/3
f 88/130/3 80/132/3 82/125/3
f 80/132/3 88/130/3 87/129/3
f 87/102/5 84/101/5 90/100/5
f 84/101/5 87/102/5 83/103/5
f 79/135/2 87/134/2 90/133/2
f 87/134/2 79/135/2 80/136/2
f 22/28/3 84/127/3 27/33/3
f 22/28/3 90/129/3 84/127/3
f 24/30/3 90/129/3 22/28/3
f 90/129/3 24/30/3 79/132/3
f 81/125/3 27/33/3 84/127/3
f 79/132/3 27/33/3 81/125/3
f 79/132/3 25/31/3 27/33/3
f 25/31/3 79/132/3 24/30/3
f 91/137/2 30/38/2 21/37/2
f 30/38/2 91/137/2 92/138/2
f 28/34/3 91/139/3 21/27/3
f 91/139/3 28/34/3 93/140/3
f 96/143/6 95/142/6 94/141/6
f 95/142/6 96/143/6 97/144/6
f 4/146/6 98/141/6 5/145/6
f 98/141/6 4/146/6 99/143/6
f 99/143/6 20/147/6 100/144/6
f 20/147/6 99/143/6 18/148/6
f 18/151/2 101/150/2 78/149/2
f 101/150/2 18/151/2 99/152/2
f 98/11/2 96/154/2 94/153/2
f 96/154/2 98/11/2 99/152/2
f 94/156/3 95/155/3 98/23/3
f 5/21/3 23/29/3 11/14/3
f 98/23/3 23/29/3 5/21/3
f 98/23/3 26/32/3 23/29/3
f 26/32/3 98/23/3 95/155/3
f 100/4/1 95/158/1 97/157/1
f 100/4/1 26/47/1 95/158/1
f 26/47/1 100/4/1 38/49/1
f 31/13/1 100/152/1 20/151/1
f 100/4/1 31/73/1 38/49/1
f 96/160/4 100/41/4 97/159/4
f 100/41/4 96/160/4 99/161/4
f 101/164/4 4/163/4 77/162/4
f 4/163/4 101/164/4 99/161/4
f 76/165/6 101/143/6 77/146/6
f 76/165/6 78/148/6 101/143/6
f 78/148/6 76/165/6 75/166/6
f 104/169/6 103/168/6 102/167/6
f 103/168/6 104/169/6 105/170/6
f 107/173/3 105/172/3 106/171/3
f 105/172/3 107/173/3 103/174/3
f 107/177/5 109/176/5 108/175/5
f 109/176/5 107/177/5 106/178/5
f 102/181/4 109/180/4 104/179/4
f 109/180/4 102/181/4 108/182/4
f 7/7/2 109/183/2 12/12/2
f 7/7/2 104/184/2 109/183/2
f 9/9/2 104/184/2 7/7/2
f 104/184/2 9/9/2 105/185/2
f 106/186/2 12/12/2 109/183/2
f 105/185/2 12/12/2 106/186/2
f 105/185/2 10/10/2 12/12/2
f 10/10/2 105/185/2 9/9/2
f 108/183/2 110/187/2 107/186/2
f 108/183/2 111/188/2 110/187/2
f 102/184/2 111/188/2 108/183/2
f 111/188/2 102/184/2 112/189/2
f 113/190/2 107/186/2 110/187/2
f 112/189/2 107/186/2 113/190/2
f 112/189/2 103/185/2 107/186/2
f 103/185/2 112/189/2 102/184/2
f 23/35/2 13/13/2 11/11/2
f 13/13/2 23/35/2 29/36/2
f 38/67/4 13/39/4 29/64/4
f 13/39/4 38/67/4 31/41/4
f 35/45/1 114/191/1 36/46/1
f 114/191/1 35/45/1 115/192/1
f 118/195/5 117/194/5 116/193/5
f 121/198/5 120/197/5 119/196/5
f 119/196/5 91/200/5 93/199/5
f 120/197/5 91/200/5 119/196/5
f 122/201/5 91/200/5 120/197/5
f 116/193/5 91/200/5 122/201/5
f 117/194/5 91/200/5 116/193/5
f 114/202/5 91/200/5 117/194/5
f 115/81/5 91/200/5 114/202/5
f 123/82/5 91/200/5 115/81/5
f 92/205/5 125/204/5 124/203/5
f 125/204/5 92/205/5 91/200/5
f 125/204/5 91/200/5 123/82/5
f 123/82/5 126/206/5 125/204/5
f 123/82/5 127/207/5 126/206/5
f 127/207/5 123/82/5 128/86/5
f 120/210/4 129/209/4 122/208/4
f 129/209/4 120/210/4 130/211/4
f 131/195/5 129/201/5 130/197/5
f 129/201/5 131/195/5 132/193/5
f 119/212/1 28/54/1 42/53/1
f 28/54/1 119/212/1 93/213/1
f 115/215/4 43/55/4 123/214/4
f 43/55/4 115/215/4 35/57/4
f 131/217/1 117/191/1 118/216/1
f 117/191/1 131/217/1 133/44/1
f 133/44/1 131/217/1 134/52/1
f 130/218/1 134/52/1 131/217/1
f 120/219/1 134/52/1 130/218/1
f 134/52/1 120/219/1 121/212/1
f 34/222/6 134/221/6 41/220/6
f 134/221/6 34/222/6 133/223/6
f 131/226/3 116/225/3 132/224/3
f 116/225/3 131/226/3 118/227/3
f 41/230/3 119/229/3 42/228/3
f 134/231/3 119/140/3 41/80/3
f 119/140/3 134/231/3 121/227/3
f 114/234/4 34/233/4 36/232/4
f 117/210/4 34/58/4 114/215/4
f 34/58/4 117/210/4 133/235/4
f 49/62/4 128/214/4 48/55/4
f 128/214/4 49/62/4 127/236/4
f 127/236/4 49/62/4 135/237/4
f 92/238/4 50/63/4 30/66/4
f 124/239/4 50/63/4 92/238/4
f 124/239/4 51/65/4 50/63/4
f 136/240/4 51/65/4 124/239/4
f 135/237/4 51/65/4 136/240/4
f 135/237/4 47/61/4 51/65/4
f 47/61/4 135/237/4 49/62/4
f 138/206/5 136/203/5 137/204/5
f 136/203/5 138/206/5 135/207/5
f 126/243/2 135/242/2 138/241/2
f 135/242/2 126/243/2 127/138/2
f 124/246/1 137/245/1 136/244/1
f 137/245/1 124/246/1 125/247/1
f 128/246/1 43/45/1 48/50/1
f 43/45/1 128/246/1 123/192/1
f 141/250/4 140/249/4 139/248/4
f 140/249/4 141/250/4 142/251/4
f 143/254/6 141/253/6 139/252/6
f 141/253/6 143/254/6 144/255/6
f 145/258/5 140/257/5 142/256/5
f 140/257/5 145/258/5 146/259/5
f 145/262/3 143/261/3 146/260/3
f 143/261/3 145/262/3 144/263/3
f 149/266/1 148/265/1 147/264/1
f 148/265/1 149/266/1 150/267/1
f 151/270/1 150/269/1 149/268/1
f 151/270/1 152/271/1 150/269/1
f 146/274/1 153/273/1 140/272/1
f 146/274/1 151/275/1 153/273/1
f 143/276/1 151/275/1 146/274/1
f 151/275/1 143/276/1 152/277/1
f 147/264/1 140/272/1 153/273/1
f 148/265/1 140/272/1 147/264/1
f 154/278/1 140/272/1 148/265/1
f 152/277/1 140/272/1 154/278/1
f 152/277/1 139/279/1 140/272/1
f 139/279/1 152/277/1 143/276/1
f 53/69/1 145/274/1 56/74/1
f 53/69/1 144/276/1 145/274/1
f 54/71/1 144/276/1 53/69/1
f 144/276/1 54/71/1 141/279/1
f 142/272/1 56/74/1 145/274/1
f 141/279/1 56/74/1 142/272/1
f 141/279/1 55/72/1 56/74/1
f 55/72/1 141/279/1 54/71/1
f 40/34/3 155/280/3 58/79/3
f 155/280/3 40/34/3 156/140/3
f 155/281/2 46/38/2 58/77/2
f 46/38/2 155/281/2 157/138/2
f 158/215/4 46/60/4 157/282/4
f 46/60/4 158/215/4 39/57/4
f 158/283/5 155/84/5 156/83/5
f 155/84/5 158/283/5 157/85/5
f 158/246/1 40/51/1 39/50/1
f 40/51/1 158/246/1 156/284/1

usemtl window(Clone)

f 72/113/3 74/115/3 71/112/3
f 74/115/3 72/113/3 73/114/3
f 86/128/3 89/131/3 85/126/3
f 89/131/3 86/128/3 88/130/3
f 111/188/2 113/190/2 110/187/2
f 113/190/2 111/188/2 112/189/2
f 161/287/1 160/286/1 159/285/1
f 160/286/1 161/287/1 162/288/1
f 150/267/1 154/278/1 148/265/1
f 154/278/1 150/267/1 152/277/1
f 151/275/1 147/264/1 153/273/1
f 147/264/1 151/275/1 149/266/1

usemtl door(Clone)

f 132/217/1 159/285/1 129/218/1
f 132/217/1 161/287/1 159/285/1
f 116/216/1 161/287/1 132/217/1
f 161/287/1 116/216/1 162/288/1
f 160/286/1 129/218/1 159/285/1
f 162/288/1 129/218/1 160/286/1
f 162/288/1 122/219/1 129/218/1
f 122/219/1 162/288/1 116/216/1
f 126/236/4 137/240/4 125/239/4
f 137/240/4 126/236/4 138/237/4

usemtl roof(Clone)

f 165/291/7 164/290/7 163/289/7
f 164/290/7 165/291/7 166/292/7
f 2/294/8 61/293/8 59/82/8
f 61/293/8 2/294/8 167/295/8
f 2/294/8 168/296/8 167/295/8
f 8/200/8 168/296/8 2/294/8
f 8/200/8 169/297/8 168/296/8
f 169/297/8 8/200/8 60/298/8
f 163/301/9 167/300/9 168/299/9
f 167/300/9 163/301/9 164/302/9
f 61/305/1 164/304/1 166/303/1
f 164/304/1 61/305/1 167/306/1
f 169/88/2 163/308/2 168/307/2
f 163/308/2 169/88/2 165/309/2
f 169/88/2 170/310/2 165/309/2
f 170/310/2 169/88/2 171/311/2
f 166/312/3 62/91/3 61/90/3
f 166/312/3 172/313/3 62/91/3
f 172/313/3 166/312/3 173/314/3
f 171/317/10 174/316/10 170/315/10
f 174/316/10 171/317/10 175/318/10
f 172/319/11 32/283/11 62/81/11
f 175/320/11 32/283/11 172/319/11
f 32/283/11 175/320/11 171/321/11
f 32/283/11 171/321/11 6/205/11
f 6/205/11 169/297/11 60/298/11
f 169/297/11 6/205/11 171/321/11
f 165/309/12 173/322/12 166/309/12
f 170/324/12 173/323/12 165/291/12
f 173/323/12 170/324/12 174/325/12
f 174/327/1 172/87/1 173/326/1
f 172/87/1 174/327/1 175/328/1

