# Blender v2.82 (sub 7) OBJ File: ''
# www.blender.org
mtllib city_placement.mtl
o city_placement
v -0.500000 -0.500000 -0.260000
v -0.260000 -0.500000 -0.500000
v -0.260000 -0.500000 -0.260000
v -0.500000 -0.500000 -0.500000
v -0.500000 -0.435200 -0.500000
v -0.500000 -0.435200 -0.260000
v -0.260000 -0.435200 -0.500000
v -0.260000 -0.435200 -0.260000
v 0.260000 -0.500000 -0.260000
v 0.500000 -0.500000 -0.500000
v 0.500000 -0.500000 -0.260000
v 0.260000 -0.500000 -0.500000
v 0.260000 -0.435200 -0.500000
v 0.260000 -0.435200 -0.260000
v 0.500000 -0.435200 -0.500000
v 0.500000 -0.435200 -0.260000
v 0.260000 -0.500000 0.490000
v 0.500000 -0.500000 0.250000
v 0.500000 -0.500000 0.490000
v 0.260000 -0.500000 0.250000
v 0.260000 -0.435200 0.250000
v 0.260000 -0.435200 0.490000
v 0.500000 -0.435200 0.250000
v 0.500000 -0.435200 0.490000
v -0.490000 -0.500000 0.490000
v -0.250000 -0.500000 0.250000
v -0.250000 -0.500000 0.490000
v -0.490000 -0.500000 0.250000
v -0.490000 -0.435200 0.250000
v -0.490000 -0.435200 0.490000
v -0.250000 -0.435200 0.250000
v -0.250000 -0.435200 0.490000
vt 0.490000 -0.490000
vt 0.250000 -0.250000
vt 0.250000 -0.490000
vt 0.490000 -0.250000
vt 0.490000 0.000000
vt 0.250000 0.064800
vt 0.250000 0.000000
vt 0.490000 0.064800
vt 0.490000 0.064800
vt 0.250000 0.000000
vt 0.490000 0.000000
vt 0.250000 0.064800
vt -0.250000 0.064800
vt -0.490000 0.000000
vt -0.250000 0.000000
vt -0.490000 0.064800
vt -0.490000 0.064800
vt -0.250000 0.000000
vt -0.250000 0.064800
vt -0.490000 0.000000
vt 0.490000 0.250000
vt 0.250000 0.490000
vt 0.250000 0.250000
vt 0.490000 0.490000
vt 0.490000 -0.490000
vt 0.250000 -0.250000
vt 0.250000 -0.490000
vt 0.490000 -0.250000
vt 0.490000 0.000000
vt 0.250000 0.064800
vt 0.250000 0.000000
vt 0.490000 0.064800
vt 0.490000 0.064800
vt 0.250000 0.000000
vt 0.490000 0.000000
vt 0.250000 0.064800
vt -0.250000 0.064800
vt -0.490000 0.000000
vt -0.250000 0.000000
vt -0.490000 0.064800
vt -0.490000 0.064800
vt -0.250000 0.000000
vt -0.250000 0.064800
vt -0.490000 0.000000
vt 0.490000 0.250000
vt 0.250000 0.490000
vt 0.250000 0.250000
vt 0.490000 0.490000
vt 0.490000 -0.490000
vt 0.250000 -0.250000
vt 0.250000 -0.490000
vt 0.490000 -0.250000
vt 0.490000 0.000000
vt 0.250000 0.064800
vt 0.250000 0.000000
vt 0.490000 0.064800
vt 0.490000 0.064800
vt 0.250000 0.000000
vt 0.490000 0.000000
vt 0.250000 0.064800
vt -0.250000 0.064800
vt -0.490000 0.000000
vt -0.250000 0.000000
vt -0.490000 0.064800
vt -0.490000 0.064800
vt -0.250000 0.000000
vt -0.250000 0.064800
vt -0.490000 0.000000
vt 0.490000 0.250000
vt 0.250000 0.490000
vt 0.250000 0.250000
vt 0.490000 0.490000
vt 0.490000 -0.490000
vt 0.250000 -0.250000
vt 0.250000 -0.490000
vt 0.490000 -0.250000
vt 0.490000 0.000000
vt 0.250000 0.064800
vt 0.250000 0.000000
vt 0.490000 0.064800
vt 0.490000 0.064800
vt 0.250000 0.000000
vt 0.490000 0.000000
vt 0.250000 0.064800
vt -0.250000 0.064800
vt -0.490000 0.000000
vt -0.250000 0.000000
vt -0.490000 0.064800
vt -0.490000 0.064800
vt -0.250000 0.000000
vt -0.250000 0.064800
vt -0.490000 0.000000
vt 0.490000 0.250000
vt 0.250000 0.490000
vt 0.250000 0.250000
vt 0.490000 0.490000
vn 0.0000 -1.0000 -0.0000
vn -1.0000 0.0000 0.0000
vn 0.0000 0.0000 -1.0000
vn 0.0000 0.0000 1.0000
vn 1.0000 0.0000 0.0000
vn 0.0000 1.0000 0.0000
g city_placement_city_placement_pavement(Clone).004
usemtl pavement(Clone).004
s 1
f 1/1/1 2/2/1 3/3/1
f 2/2/1 1/1/1 4/4/1
s 2
f 1/5/2 5/6/2 4/7/2
f 5/6/2 1/5/2 6/8/2
s 4
f 5/9/3 2/10/3 4/11/3
f 2/10/3 5/9/3 7/12/3
f 8/13/4 1/14/4 3/15/4
f 1/14/4 8/13/4 6/16/4
s 2
f 8/17/5 2/18/5 7/19/5
f 2/18/5 8/17/5 3/20/5
s 1
f 5/21/6 8/22/6 7/23/6
f 8/22/6 5/21/6 6/24/6
f 9/25/1 10/26/1 11/27/1
f 10/26/1 9/25/1 12/28/1
s 2
f 9/29/2 13/30/2 12/31/2
f 13/30/2 9/29/2 14/32/2
s 4
f 13/33/3 10/34/3 12/35/3
f 10/34/3 13/33/3 15/36/3
f 16/37/4 9/38/4 11/39/4
f 9/38/4 16/37/4 14/40/4
s 2
f 16/41/5 10/42/5 15/43/5
f 10/42/5 16/41/5 11/44/5
s 1
f 13/45/6 16/46/6 15/47/6
f 16/46/6 13/45/6 14/48/6
f 17/49/1 18/50/1 19/51/1
f 18/50/1 17/49/1 20/52/1
s 2
f 17/53/2 21/54/2 20/55/2
f 21/54/2 17/53/2 22/56/2
s 4
f 21/57/3 18/58/3 20/59/3
f 18/58/3 21/57/3 23/60/3
f 24/61/4 17/62/4 19/63/4
f 17/62/4 24/61/4 22/64/4
s 2
f 24/65/5 18/66/5 23/67/5
f 18/66/5 24/65/5 19/68/5
s 1
f 21/69/6 24/70/6 23/71/6
f 24/70/6 21/69/6 22/72/6
f 25/73/1 26/74/1 27/75/1
f 26/74/1 25/73/1 28/76/1
s 2
f 25/77/2 29/78/2 28/79/2
f 29/78/2 25/77/2 30/80/2
s 4
f 29/81/3 26/82/3 28/83/3
f 26/82/3 29/81/3 31/84/3
f 32/85/4 25/86/4 27/87/4
f 25/86/4 32/85/4 30/88/4
s 2
f 32/89/5 26/90/5 31/91/5
f 26/90/5 32/89/5 27/92/5
s 1
f 29/93/6 32/94/6 31/95/6
f 32/94/6 29/93/6 30/96/6
