# Created by Kenney (www.kenney.nl)

mtllib city_road_lit.mtl

g mergedBlocks

v -0.0125 0.1527777 0.3500001
v -0.0125 0.175 0.3500001
v -0.0125 0.1502059 0.3711329
v -0.0125 0.1716933 0.3771709
v -0.0125 0.1426402 0.391032
v -0.0125 0.161966 0.4027554
v -0.0125 0.1305227 0.4085356
v -0.0125 0.1463862 0.42526
v -0.0125 0.1145605 0.4226218
v -0.0125 0.0956856 0.4324682
v -0.0125 0.1258634 0.4433708
v -0.0125 0.07499999 0.4375001
v -0.0125 0.07499999 0.4625
v -0.0125 -0.35 0.4625
v -0.0125 0.1015958 0.4560305
v -0.0125 -0.35 0.4375001
v 0.0125 0.175 0.3500001
v 0.0125 0.1716933 0.3771709
v 0.0125 0.1305227 0.4085356
v 0.0125 0.1145605 0.4226218
v 0.0125 -0.35 0.4625
v 0.0125 -0.35 0.4375001
v 0.025 -0.4 0.475
v 0.025 -0.4 0.4250001
v 0.0125 0.1258634 0.4433708
v 0.0125 0.1015958 0.4560305
v 0.0125 0.0956856 0.4324682
v -0.025 0.175 0.3
v -0.025 0.175 0.2500001
v 0.025 0.175 0.3
v 0.025 0.175 0.2500001
v 0.0125 0.1502059 0.3711329
v 0.0125 0.1426402 0.391032
v -0.025 0.1527777 0.3
v -0.025 0.1527777 0.2500001
v -0.025 -0.4 0.475
v -0.025 -0.5 0.475
v -0.025 -0.4 0.4250001
v -0.025 -0.5 0.4250001
v 0.0125 0.1463862 0.42526
v 0.0125 0.161966 0.4027554
v 0.0125 0.07499999 0.4375001
v 0.025 -0.5 0.4250001
v 0.0125 0.07499999 0.4625
v 0.025 0.1527777 0.3
v 0.025 0.1527777 0.2500001
v 0.0125 0.1527777 0.3500001
v 0.025 -0.5 0.475
v 0.01249998 0.1527777 -0.3499999
v 0.01249998 0.175 -0.3499999
v 0.01249999 0.1502059 -0.3711328
v 0.01249999 0.1716933 -0.3771707
v 0.01249999 0.1426402 -0.3910319
v 0.01249999 0.161966 -0.4027553
v 0.01249999 0.1305227 -0.4085355
v 0.0125 0.1463862 -0.4252599
v 0.0125 0.1145605 -0.4226217
v 0.0125 0.0956856 -0.4324681
v 0.0125 0.1258634 -0.4433707
v 0.0125 0.07499999 -0.4374999
v 0.0125 0.07499999 -0.4624999
v 0.0125 -0.35 -0.4624999
v 0.0125 0.1015958 -0.4560304
v 0.0125 -0.35 -0.4374999
v -0.01250002 0.175 -0.3499999
v -0.01250001 0.1716933 -0.3771707
v -0.01250001 0.1305227 -0.4085355
v -0.01250001 0.1145605 -0.4226217
v -0.0125 -0.35 -0.4624999
v -0.0125 -0.35 -0.4374999
v -0.025 -0.4 -0.4749999
v -0.02500001 -0.4 -0.425
v -0.0125 0.1258634 -0.4433707
v -0.0125 0.1015958 -0.4560304
v -0.0125 0.0956856 -0.4324681
v 0.02499998 0.175 -0.2999999
v 0.02499997 0.175 -0.2499999
v -0.02500003 0.175 -0.2999999
v -0.02500004 0.175 -0.2499999
v -0.01250002 0.1502059 -0.3711328
v -0.01250001 0.1426402 -0.3910319
v 0.02499998 0.1527777 -0.2999999
v 0.02499997 0.1527777 -0.2499999
v 0.02500001 -0.4 -0.4749999
v 0.02500001 -0.5 -0.4749999
v 0.025 -0.4 -0.425
v 0.025 -0.5 -0.425
v -0.01250001 0.1463862 -0.4252599
v -0.01250001 0.161966 -0.4027553
v -0.0125 0.07499999 -0.4374999
v -0.02500001 -0.5 -0.425
v -0.0125 0.07499999 -0.4624999
v -0.02500003 0.1527777 -0.2999999
v -0.02500004 0.1527777 -0.2499999
v -0.01250002 0.1527777 -0.3499999
v -0.025 -0.5 -0.4749999
v -0.5 -0.48 0.5
v -0.5 -0.48 0.4
v 0.5 -0.48 0.5
v 0.5 -0.48 0.4
v -0.5 -0.5 0.5
v 0.5 -0.5 0.5
v -0.5 -0.48 -0.4
v -0.5 -0.48 -0.5
v 0.5 -0.48 -0.4
v 0.5 -0.48 -0.5
v -0.5 -0.5 -0.5
v 0.5 -0.5 -0.5
v 0.5 -0.49 0.4
v -0.5 -0.49 0.4
v -0.5 -0.49 -0.4
v 0.5 -0.49 -0.4
v -0.5 -0.49 -0.009999991
v -0.5 -0.49 -0.3
v 0.5 -0.49 -0.009999991
v 0.5 -0.49 -0.3
v -0.5 -0.49 0.009999991
v 0.5 -0.49 0.009999991
v -0.5 -0.49 0.3
v 0.5 -0.49 0.3

vn -1 0 0
vn 0 0.9984231 0.05613834
vn 0 0.9708093 0.2398527
vn 0 -0.7474093 -0.6643638
vn 0 -0.5662425 -0.8242387
vn 0.9701425 0.2425356 0
vn 0.9936895 0.1121652 0
vn 0 0.5662425 0.8242387
vn 0 0.3520176 0.9359934
vn 0 -0.3520176 -0.9359934
vn 0 1 0
vn 0 -0.9708093 -0.2398527
vn 0 -0.8849414 -0.4657024
vn -0.9925076 0 0.1221833
vn -0.9936895 0.1121652 0
vn 0 0.2425356 -0.9701425
vn 0 0.1121652 -0.9936895
vn 0 0.7474093 0.6643638
vn 0 0.8849414 0.4657024
vn -0.9701425 0 0.2425356
vn 0 -0.2363607 -0.9716654
vn 0 0 -1
vn 0 0.2363607 0.9716654
vn 0 0 1
vn 0 0.2425356 0.9701425
vn 0 0.1121652 0.9936895
vn 0.9925076 0 0.1221833
vn 1 0 0
vn 0 -0.9926755 -0.1208112
vn -0.9701425 0.2425356 0
vn 0.9701425 0 0.2425356
vn 1 0 1.788139E-07
vn 1.003832E-08 0.9984231 -0.05613834
vn 4.288901E-08 0.9708093 -0.2398527
vn -1.187975E-07 -0.7474093 0.6643638
vn -1.473854E-07 -0.5662425 0.8242387
vn -0.9701425 0.2425356 -1.73475E-07
vn -0.9936895 0.1121652 -1.776855E-07
vn 1.473854E-07 0.5662425 -0.8242387
vn 1.673687E-07 0.3520176 -0.9359934
vn -1.673687E-07 -0.3520176 0.9359934
vn -4.288901E-08 -0.9708093 0.2398527
vn -8.327407E-08 -0.8849414 0.4657024
vn 0.9925076 0 -0.1221831
vn 0.9936895 0.1121652 1.776855E-07
vn -1.73475E-07 0.2425356 0.9701425
vn -1.776855E-07 0.1121652 0.9936895
vn 1.187975E-07 0.7474093 -0.6643638
vn 8.327407E-08 0.8849414 -0.4657024
vn 0.9701426 0 -0.2425354
vn -1.737473E-07 -0.2363607 0.9716654
vn -1.788139E-07 0 1
vn 1.737473E-07 0.2363607 -0.9716654
vn 1.788139E-07 0 -1
vn 1.73475E-07 0.2425356 -0.9701425
vn 1.776855E-07 0.1121652 -0.9936895
vn -0.9925076 0 -0.1221835
vn -1 0 -1.788139E-07
vn -2.160273E-08 -0.9926755 0.1208112
vn 0.9701425 0.2425356 1.73475E-07
vn -0.9701425 0 -0.2425358
vn 0 -1 0

vt 0.3499999 0.1527777
vt 0.3499999 0.175
vt 0.3711328 0.1502059
vt 0.3771707 0.1716933
vt 0.3910319 0.1426402
vt 0.4027553 0.161966
vt 0.4085355 0.1305227
vt 0.4252599 0.1463862
vt 0.4226217 0.1145605
vt 0.4324681 0.0956856
vt 0.4433707 0.1258634
vt 0.4374999 0.07499999
vt 0.4624999 0.07499999
vt 0.4624999 -0.35
vt 0.4560304 0.1015958
vt 0.4374999 -0.35
vt -0.01249998 -0.3499999
vt 0.01250002 -0.3499999
vt -0.01249999 -0.3771707
vt 0.01250001 -0.3771707
vt -0.01250001 0.1305227
vt 0.01249999 0.1305227
vt -0.01250001 0.1145605
vt 0.0125 0.1145605
vt -0.4624999 -0.35
vt -0.4374999 -0.35
vt -0.4749999 -0.4
vt -0.425 -0.4
vt -0.0125 0.1258634
vt 0.0125 0.1258634
vt -0.0125 0.1015958
vt 0.0125 0.1015958
vt -0.0125 0.0956856
vt 0.0125 0.0956856
vt -0.02499998 -0.2999999
vt -0.02499997 -0.2499999
vt 0.02500003 -0.2999999
vt 0.02500004 -0.2499999
vt -0.01249999 0.3711328
vt -0.01249999 0.3910319
vt 0.01250002 0.3711328
vt 0.01250001 0.3910319
vt 0.2999999 0.175
vt 0.2999999 0.1527777
vt 0.2499999 0.175
vt 0.2499999 0.1527777
vt 0.4749999 -0.4
vt 0.4749999 -0.5
vt 0.425 -0.4
vt 0.425 -0.5
vt -0.0125 -0.35
vt 0.0125 -0.35
vt -0.02500001 -0.4
vt 0.025 -0.4
vt -0.0125 -0.4252599
vt -0.01249999 -0.4027553
vt 0.01250001 -0.4252599
vt 0.01250001 -0.4027553
vt -0.0125 0.07499999
vt 0.0125 0.07499999
vt -0.02500001 -0.5
vt 0.025 -0.5
vt -0.2999999 0.1527777
vt -0.2999999 0.175
vt -0.2499999 0.1527777
vt -0.2499999 0.175
vt -0.01249998 0.3499999
vt 0.01250002 0.3499999
vt -0.02500004 0.175
vt 0.02499997 0.175
vt -0.02500004 0.1527777
vt 0.02499997 0.1527777
vt -0.4749999 -0.5
vt -0.425 -0.5
vt -0.0125 0.1463862
vt 0.01250001 0.1463862
vt -0.01249999 0.4085355
vt 0.01250001 0.4085355
vt -0.4624999 0.07499999
vt -0.4560304 0.1015958
vt -0.4433707 0.1258634
vt -0.4374999 0.07499999
vt -0.4324681 0.0956856
vt -0.4252599 0.1463862
vt -0.4226217 0.1145605
vt -0.4085355 0.1305227
vt -0.4027553 0.161966
vt -0.3910319 0.1426402
vt -0.3771707 0.1716933
vt -0.3711328 0.1502059
vt -0.3499999 0.175
vt -0.3499999 0.1527777
vt 0.5 0.5
vt 0.5 0.4
vt -0.5 0.5
vt -0.5 0.4
vt -0.5 -0.48
vt 0.5 -0.48
vt -0.5 -0.5
vt 0.5 -0.5
vt 0.5 -0.4
vt -0.5 -0.4
vt -0.5 -0.49
vt 0.5 -0.49
vt -0.02499998 0.2999999
vt -0.02499997 0.2499999
vt 0.02500004 0.2499999
vt 0.02500003 0.2999999
vt -0.025 0.425
vt -0.02500001 0.4749999
vt 0.02500001 0.425
vt 0.025 0.4749999
vt 0.5 -0.009999991
vt 0.5 -0.3
vt -0.5 -0.009999991
vt -0.5 -0.3
vt 0.5 0.009999991
vt -0.5 0.009999991
vt 0.5 0.3
vt -0.5 0.3
vt -0.4 -0.49
vt -0.4 -0.48
vt 0.4 -0.48
vt 0.4 -0.49
vt 0.3 -0.49
vt 0.009999991 -0.49
vt -0.009999991 -0.49
vt -0.3 -0.49

usemtl pavement(Clone)

f 3/3/1 2/2/1 1/1/1
f 2/2/1 3/3/1 4/4/1
f 4/4/1 3/3/1 5/5/1
f 4/4/1 5/5/1 6/6/1
f 6/6/1 5/5/1 7/7/1
f 6/6/1 7/7/1 8/8/1
f 8/8/1 7/7/1 9/9/1
f 8/8/1 9/9/1 10/10/1
f 8/8/1 10/10/1 11/11/1
f 11/11/1 10/10/1 12/12/1
f 15/15/1 14/14/1 13/13/1
f 11/11/1 14/14/1 15/15/1
f 12/12/1 14/14/1 11/11/1
f 14/14/1 12/12/1 16/16/1
f 4/19/3 17/18/2 2/17/2
f 17/18/2 4/19/3 18/20/3
f 20/23/5 7/22/4 19/21/4
f 7/22/4 20/23/5 9/24/5
f 23/27/7 22/26/6 21/25/6
f 22/26/6 23/27/7 24/28/7
f 15/31/9 25/30/8 11/29/8
f 25/30/8 15/31/9 26/32/9
f 27/33/10 9/24/5 20/23/5
f 9/24/5 27/33/10 10/34/10
f 2/17/2 29/36/11 28/35/11
f 17/18/2 29/36/11 2/17/2
f 30/37/11 29/36/11 17/18/2
f 29/36/11 30/37/11 31/38/11
f 32/41/12 5/40/13 3/39/12
f 5/40/13 32/41/12 33/42/13
f 29/45/1 34/44/14 28/43/14
f 34/44/14 29/45/1 35/46/1
f 38/49/15 37/48/1 36/47/15
f 37/48/1 38/49/15 39/50/1
f 24/53/17 16/52/16 22/51/16
f 16/52/16 24/53/17 38/54/17
f 40/57/18 6/56/19 8/55/18
f 6/56/19 40/57/18 41/58/19
f 28/43/14 1/1/20 2/2/20
f 1/1/20 28/43/14 34/44/14
f 42/59/21 10/34/10 27/33/10
f 10/34/10 42/59/21 12/60/21
f 43/61/22 38/54/17 24/53/17
f 38/54/17 43/61/22 39/62/22
f 13/59/23 26/32/9 15/31/9
f 26/32/9 13/59/23 44/60/23
f 41/58/19 4/19/3 6/56/19
f 4/19/3 41/58/19 18/20/3
f 14/51/24 44/60/24 13/59/24
f 44/60/24 14/51/24 21/52/24
f 36/53/26 21/52/25 14/51/25
f 21/52/25 36/53/26 23/54/26
f 46/65/28 30/64/27 45/63/27
f 30/64/27 46/65/28 31/66/28
f 47/68/29 3/39/12 1/67/29
f 3/39/12 47/68/29 32/41/12
f 22/51/22 12/60/22 42/59/22
f 12/60/22 22/51/22 16/52/22
f 46/71/22 29/70/22 31/69/22
f 29/70/22 46/71/22 35/72/22
f 16/16/30 36/47/15 14/14/30
f 36/47/15 16/16/30 38/49/15
f 43/74/28 23/27/7 48/73/28
f 23/27/7 43/74/28 24/28/7
f 11/29/8 40/76/18 8/75/18
f 40/76/18 11/29/8 25/30/8
f 33/42/13 7/77/4 5/40/13
f 7/77/4 33/42/13 19/78/4
f 21/25/28 26/80/28 44/79/28
f 21/25/28 25/81/28 26/80/28
f 22/26/28 25/81/28 21/25/28
f 42/82/28 25/81/28 22/26/28
f 27/83/28 25/81/28 42/82/28
f 27/83/28 40/84/28 25/81/28
f 20/85/28 40/84/28 27/83/28
f 19/86/28 40/84/28 20/85/28
f 19/86/28 41/87/28 40/84/28
f 33/88/28 41/87/28 19/86/28
f 33/88/28 18/89/28 41/87/28
f 32/90/28 18/89/28 33/88/28
f 32/90/28 17/91/28 18/89/28
f 17/91/28 32/90/28 47/92/28
f 37/61/24 23/54/26 36/53/26
f 23/54/26 37/61/24 48/62/24
f 45/63/27 17/91/31 47/92/31
f 17/91/31 45/63/27 30/64/27
f 51/3/32 50/2/32 49/1/32
f 50/2/32 51/3/32 52/4/32
f 52/4/32 51/3/32 53/5/32
f 52/4/32 53/5/32 54/6/32
f 54/6/32 53/5/32 55/7/32
f 54/6/32 55/7/32 56/8/32
f 56/8/32 55/7/32 57/9/32
f 56/8/32 57/9/32 58/10/32
f 56/8/32 58/10/32 59/11/32
f 59/11/32 58/10/32 60/12/32
f 63/15/32 62/14/32 61/13/32
f 59/11/32 62/14/32 63/15/32
f 60/12/32 62/14/32 59/11/32
f 62/14/32 60/12/32 64/16/32
f 52/19/34 65/18/33 50/17/33
f 65/18/33 52/19/34 66/20/34
f 68/23/36 55/22/35 67/21/35
f 55/22/35 68/23/36 57/24/36
f 71/27/38 70/26/37 69/25/37
f 70/26/37 71/27/38 72/28/38
f 63/31/40 73/30/39 59/29/39
f 73/30/39 63/31/40 74/32/40
f 75/33/41 57/24/36 68/23/36
f 57/24/36 75/33/41 58/34/41
f 50/17/33 77/36/11 76/35/11
f 65/18/33 77/36/11 50/17/33
f 78/37/11 77/36/11 65/18/33
f 77/36/11 78/37/11 79/38/11
f 80/41/42 53/40/43 51/39/42
f 53/40/43 80/41/42 81/42/43
f 77/45/32 82/44/44 76/43/44
f 82/44/44 77/45/32 83/46/32
f 86/49/45 85/48/32 84/47/45
f 85/48/32 86/49/45 87/50/32
f 72/53/47 64/52/46 70/51/46
f 64/52/46 72/53/47 86/54/47
f 88/57/48 54/56/49 56/55/48
f 54/56/49 88/57/48 89/58/49
f 76/43/44 49/1/50 50/2/50
f 49/1/50 76/43/44 82/44/44
f 90/59/51 58/34/41 75/33/41
f 58/34/41 90/59/51 60/60/51
f 91/61/52 86/54/47 72/53/47
f 86/54/47 91/61/52 87/62/52
f 61/59/53 74/32/40 63/31/40
f 74/32/40 61/59/53 92/60/53
f 89/58/49 52/19/34 54/56/49
f 52/19/34 89/58/49 66/20/34
f 62/51/54 92/60/54 61/59/54
f 92/60/54 62/51/54 69/52/54
f 84/53/56 69/52/55 62/51/55
f 69/52/55 84/53/56 71/54/56
f 94/65/58 78/64/57 93/63/57
f 78/64/57 94/65/58 79/66/58
f 95/68/59 51/39/42 49/67/59
f 51/39/42 95/68/59 80/41/42
f 70/51/52 60/60/52 90/59/52
f 60/60/52 70/51/52 64/52/52
f 94/71/52 77/70/52 79/69/52
f 77/70/52 94/71/52 83/72/52
f 64/16/60 84/47/45 62/14/60
f 84/47/45 64/16/60 86/49/45
f 91/74/58 71/27/38 96/73/58
f 71/27/38 91/74/58 72/28/38
f 59/29/39 88/76/48 56/75/48
f 88/76/48 59/29/39 73/30/39
f 81/42/43 55/77/35 53/40/43
f 55/77/35 81/42/43 67/78/35
f 69/25/58 74/80/58 92/79/58
f 69/25/58 73/81/58 74/80/58
f 70/26/58 73/81/58 69/25/58
f 90/82/58 73/81/58 70/26/58
f 75/83/58 73/81/58 90/82/58
f 75/83/58 88/84/58 73/81/58
f 68/85/58 88/84/58 75/83/58
f 67/86/58 88/84/58 68/85/58
f 67/86/58 89/87/58 88/84/58
f 81/88/58 89/87/58 67/86/58
f 81/88/58 66/89/58 89/87/58
f 80/90/58 66/89/58 81/88/58
f 80/90/58 65/91/58 66/89/58
f 65/91/58 80/90/58 95/92/58
f 85/61/54 71/54/56 84/53/56
f 71/54/56 85/61/54 96/62/54
f 93/63/57 65/91/61 95/92/61
f 65/91/61 93/63/57 78/64/57
f 99/95/11 98/94/11 97/93/11
f 98/94/11 99/95/11 100/96/11
f 101/99/24 99/98/24 97/97/24
f 99/98/24 101/99/24 102/100/24
f 105/102/11 104/100/11 103/101/11
f 104/100/11 105/102/11 106/99/11
f 108/95/62 101/100/62 107/93/62
f 101/100/62 108/95/62 102/99/62
f 109/103/22 98/98/22 100/97/22
f 98/98/22 109/103/22 110/104/22
f 108/99/22 104/98/22 106/97/22
f 104/98/22 108/99/22 107/100/22
f 111/103/24 105/98/24 103/97/24
f 105/98/24 111/103/24 112/104/24

usemtl light(Clone)

f 35/106/62 1/67/62 34/105/62
f 35/106/62 47/68/62 1/67/62
f 46/107/62 47/68/62 35/106/62
f 47/68/62 46/107/62 45/108/62
f 83/106/62 49/67/62 82/105/62
f 83/106/62 95/68/62 49/67/62
f 94/107/62 95/68/62 83/106/62
f 95/68/62 94/107/62 93/108/62

usemtl _defaultMat(Clone)

f 43/111/62 37/110/62 39/109/62
f 37/110/62 43/111/62 48/112/62
f 91/111/62 85/110/62 87/109/62
f 85/110/62 91/111/62 96/112/62

usemtl asphalt(Clone)

f 115/115/11 114/114/11 113/113/11
f 114/114/11 115/115/11 116/116/11
f 119/119/11 118/118/11 117/117/11
f 118/118/11 119/119/11 120/120/11
f 103/122/1 104/97/1 111/121/1
f 98/123/1 101/100/1 97/98/1
f 110/124/1 101/100/1 98/123/1
f 119/125/1 101/100/1 110/124/1
f 117/126/1 101/100/1 119/125/1
f 113/127/1 101/100/1 117/126/1
f 114/128/1 101/100/1 113/127/1
f 111/121/1 101/100/1 114/128/1
f 111/121/1 107/99/1 101/100/1
f 107/99/1 111/121/1 104/97/1
f 105/123/28 108/100/28 106/98/28
f 108/100/28 105/123/28 112/124/28
f 108/100/28 112/124/28 102/99/28
f 102/99/28 112/124/28 116/125/28
f 102/99/28 116/125/28 115/126/28
f 102/99/28 115/126/28 118/127/28
f 102/99/28 118/127/28 120/128/28
f 102/99/28 120/128/28 109/121/28
f 102/99/28 109/121/28 99/97/28
f 99/97/28 109/121/28 100/122/28

usemtl asphaltEdge(Clone)

f 109/96/11 119/119/11 110/94/11
f 119/119/11 109/96/11 120/120/11
f 116/116/11 111/101/11 114/114/11
f 111/101/11 116/116/11 112/102/11

usemtl line(Clone)

f 118/118/11 113/113/11 117/117/11
f 113/113/11 118/118/11 115/115/11

