# Created by Kenney (www.kenney.nl)

mtllib city_house_d.mtl

g mergedBlocks

v -0.214748 -0.3380001 0.27432
v -0.214748 -0.5000001 0.27432
v -0.214748 -0.3380001 0.26152
v -0.214748 -0.5000001 0.26152
v -0.3066019 -0.3380001 0.26152
v -0.3066019 -0.3380001 0.27432
v -0.3066019 -0.5000001 0.27432
v -0.3066019 -0.5000001 0.26152
v -0.3394069 -0.3380001 -0.22488
v -0.195065 -0.3500001 -0.22488
v -0.181943 -0.3380001 -0.22488
v -0.195065 -0.4100001 -0.22488
v -0.181943 -0.4220001 -0.22488
v -0.3262849 -0.4100001 -0.22488
v -0.3262849 -0.3500001 -0.22488
v -0.3394069 -0.4220001 -0.22488
v -0.06384498 -0.4700001 -0.23768
v -0.391895 -0.4700001 -0.23768
v -0.06384498 -0.5000001 -0.23768
v -0.391895 -0.5000001 -0.23768
v -0.3394069 -0.4220001 -0.23768
v -0.181943 -0.4220001 -0.23768
v -0.3394069 -0.3380001 -0.23768
v -0.181943 -0.3380001 -0.23768
v 0.04769201 -0.5000001 -0.22488
v 0.067375 -0.5000001 -0.2440799
v 0.04769201 -0.5000001 -0.2440799
v -0.04416199 -0.5000001 -0.2440799
v -0.06384498 -0.5000001 -0.2440799
v 0.395425 -0.5000001 0.27432
v 0.395425 -0.5000001 -0.23768
v 0.067375 -0.5000001 -0.23768
v -0.04416199 -0.5000001 -0.22488
v -0.391895 -0.5000001 0.27432
v -0.3590899 -0.3200001 -0.23768
v -0.16226 -0.3200001 -0.23768
v -0.16226 -0.4400001 -0.23768
v -0.3590899 -0.4400001 -0.23768
v -0.391895 -0.4700001 0.27432
v -0.04416199 -0.4220001 0.26152
v 0.04769201 -0.4220001 0.26152
v -0.04416199 -0.4220001 0.27432
v 0.04769201 -0.4220001 0.27432
v -0.04416199 -0.3380001 0.26152
v -0.04416199 -0.3380001 0.27432
v 0.04769201 -0.3380001 0.26152
v 0.04769201 -0.3380001 0.27432
v 0.067375 -0.3200001 0.27432
v -0.06384498 -0.3200001 0.27432
v -0.06384498 -0.4400001 0.27432
v 0.067375 -0.4400001 0.27432
v -0.03103999 -0.3500001 0.26152
v -0.03103999 -0.4100001 0.26152
v 0.03457001 -0.4100001 0.26152
v 0.03457001 -0.3500001 0.26152
v -0.04991243 -0.1916001 -0.2108
v -0.04991243 -0.1916001 -0.2235999
v 0.05344245 -0.1916001 -0.2108
v 0.05344245 -0.1916001 -0.2235999
v 0.001765013 -0.1414282 -0.2235999
v 0.001765013 -0.1563924 -0.2235999
v 0.073936 -0.1905982 -0.2235999
v 0.073936 -0.2036001 -0.2235999
v -0.07040597 -0.1905982 -0.2235999
v -0.07040597 -0.2036001 -0.2235999
v 0.001765013 -0.1563924 -0.2108
v 0.395425 -0.4700001 0.27432
v 0.395425 -0.4700001 -0.23768
v -0.3262849 -0.4700001 0.27432
v -0.3262849 -0.3200001 0.27432
v -0.195065 -0.3200001 0.27432
v -0.195065 -0.4700001 0.27432
v 0.310132 -0.3380001 0.27432
v 0.310132 -0.4220001 0.27432
v 0.310132 -0.3380001 0.26152
v 0.310132 -0.4220001 0.26152
v 0.2314 -0.3500001 0.26152
v 0.218278 -0.3380001 0.26152
v 0.2314 -0.4100001 0.26152
v 0.218278 -0.4220001 0.26152
v 0.29701 -0.4100001 0.26152
v 0.29701 -0.3500001 0.26152
v 0.218278 -0.4220001 0.27432
v 0.218278 -0.3380001 0.27432
v 0.329815 -0.3200001 0.27432
v 0.198595 -0.3200001 0.27432
v 0.198595 -0.4400001 0.27432
v 0.329815 -0.4400001 0.27432
v -0.04416199 -0.3380001 -0.22488
v -0.04416199 -0.3380001 -0.2440799
v 0.04769201 -0.3380001 -0.22488
v 0.04769201 -0.3380001 -0.2440799
v -0.06384498 -0.3200001 -0.23768
v -0.06384498 -0.3200001 -0.2440799
v 0.067375 -0.4700001 -0.23768
v 0.067375 -0.3200001 -0.23768
v 0.067375 -0.3200001 -0.2440799
v 0.185473 -0.3380001 -0.23768
v 0.185473 -0.3380001 -0.22488
v 0.342937 -0.3380001 -0.23768
v 0.342937 -0.3380001 -0.22488
v 0.16579 -0.3200001 -0.23768
v 0.36262 -0.3200001 -0.23768
v 0.342937 -0.4220001 -0.23768
v 0.36262 -0.4400001 -0.23768
v 0.185473 -0.4220001 -0.23768
v 0.16579 -0.4400001 -0.23768
v 0.342937 -0.4220001 -0.22488
v 0.185473 -0.4220001 -0.22488
v 0.329815 -0.3500001 -0.22488
v 0.329815 -0.4100001 -0.22488
v 0.198595 -0.4100001 -0.22488
v 0.198595 -0.3500001 -0.22488
v 0.01488701 -0.3680001 -0.22488
v -0.01135699 -0.3680001 -0.22488
v 0.01488701 -0.4700001 -0.22488
v -0.01135699 -0.4700001 -0.22488
v -0.4247 -0.2636001 0.31144
v -0.4247 -0.05750003 0.01832002
v 0.42823 -0.2636001 0.31144
v 0.42823 -0.05750003 0.01832002
v -0.4247 -0.2780001 0.29992
v -0.4247 -0.0800001 0.01832002
v -0.4247 -0.2780001 -0.2632799
v -0.4247 -0.2636001 -0.2747999
v 0.42823 -0.2780001 0.29992
v 0.42823 -0.0800001 0.01832002
v 0.395425 -0.0800001 0.01832002
v 0.395425 -0.2600001 0.27432
v -0.391895 -0.0800001 0.01832002
v -0.391895 -0.2600001 0.27432
v -0.391895 -0.2600001 -0.23768
v 0.395425 -0.2600001 -0.23768
v 0.42823 -0.2780001 -0.2632799
v 0.42823 -0.2636001 -0.2747999
v 0.10018 -0.1785501 -0.15384
v 0.10018 -0.1605501 -0.12824
v 0.10018 -0.1785501 -0.2235999
v 0.10018 -0.1785501 -0.2555999
v 0.10018 -0.1605501 -0.2555999
v 0.001765013 -0.1115 -0.2555999
v 0.001765013 -0.09350005 -0.2555999
v -0.09664998 -0.1605501 -0.2555999
v -0.09664998 -0.1785501 -0.2555999
v 0.001765013 -0.1115 -0.2235999
v -0.09664998 -0.1785501 -0.2235999
v -0.09664998 -0.1605501 -0.12824
v 0.001765013 -0.09350005 -0.03287997
v -0.09664998 -0.1785501 -0.15384
v 0.10018 -0.2276001 -0.2235999
v -0.09664998 -0.2276001 -0.2235999

vn -1 0 0
vn 0 -1 0
vn 1 0 0
vn 0 0 -1
vn 0 1 0
vn 0 0 1
vn 0.5630438 -0.8264272 0
vn -0.5630438 -0.8264272 0
vn 0 0.8180292 0.5751768
vn 0 -0.624695 0.7808688
vn 0 -0.8180292 -0.5751768
vn 0 -0.8180292 0.5751768
vn 0 -0.624695 -0.7808688
vn -0.5630438 0.8264272 0
vn 0.5630438 0.8264272 0
vn 0 0.8180292 -0.5751768

vt 0.27432 -0.3380001
vt 0.27432 -0.5000001
vt 0.26152 -0.3380001
vt 0.26152 -0.5000001
vt 0.3066019 -0.26152
vt 0.3066019 -0.27432
vt 0.214748 -0.26152
vt 0.214748 -0.27432
vt -0.27432 -0.5000001
vt -0.27432 -0.3380001
vt -0.26152 -0.5000001
vt -0.26152 -0.3380001
vt 0.3394069 -0.3380001
vt 0.195065 -0.3500001
vt 0.181943 -0.3380001
vt 0.195065 -0.4100001
vt 0.181943 -0.4220001
vt 0.3262849 -0.4100001
vt 0.3262849 -0.3500001
vt 0.3394069 -0.4220001
vt 0.06384498 -0.4700001
vt 0.391895 -0.4700001
vt 0.06384498 -0.5000001
vt 0.391895 -0.5000001
vt 0.3394069 -0.22488
vt 0.3394069 -0.2376799
vt 0.181943 -0.22488
vt 0.181943 -0.2376799
vt 0.22488 -0.4220001
vt 0.22488 -0.3380001
vt 0.2376799 -0.4220001
vt 0.2376799 -0.3380001
vt 0.3394069 0.2376799
vt 0.3394069 0.22488
vt 0.181943 0.2376799
vt 0.181943 0.22488
vt -0.22488 -0.3380001
vt -0.22488 -0.4220001
vt -0.2376799 -0.3380001
vt -0.2376799 -0.4220001
vt -0.04769201 0.22488
vt -0.067375 0.2440799
vt -0.04769201 0.2440799
vt 0.06384498 0.2376799
vt 0.04416199 0.2440799
vt 0.06384498 0.2440799
vt -0.395425 -0.27432
vt -0.395425 0.2376799
vt -0.067375 0.2376799
vt 0.04416199 0.22488
vt 0.391895 0.2376799
vt 0.391895 -0.27432
vt 0.3590899 -0.3200001
vt 0.16226 -0.3200001
vt 0.16226 -0.4400001
vt 0.3590899 -0.4400001
vt 0.27432 -0.4700001
vt -0.2376799 -0.4700001
vt -0.2376799 -0.5000001
vt 0.04416199 0.26152
vt -0.04769201 0.26152
vt 0.04416199 0.27432
vt -0.04769201 0.27432
vt 0.04416199 -0.26152
vt 0.04416199 -0.27432
vt -0.04769201 -0.26152
vt -0.04769201 -0.27432
vt 0.067375 -0.3200001
vt -0.04416199 -0.3380001
vt -0.06384498 -0.3200001
vt -0.04416199 -0.4220001
vt -0.06384498 -0.4400001
vt 0.04769201 -0.4220001
vt 0.04769201 -0.3380001
vt 0.067375 -0.4400001
vt -0.27432 -0.4220001
vt -0.26152 -0.4220001
vt -0.03103999 -0.3500001
vt -0.03103999 -0.4100001
vt 0.03457001 -0.4100001
vt 0.03457001 -0.3500001
vt 0.27432 -0.4220001
vt 0.26152 -0.4220001
vt 0.04991243 -0.2108
vt 0.04991243 -0.2235999
vt -0.05344245 -0.2108
vt -0.05344245 -0.2235999
vt -0.001765013 -0.1414282
vt -0.001765013 -0.1563924
vt -0.073936 -0.1905982
vt -0.05344245 -0.1916001
vt -0.073936 -0.2036001
vt 0.04991243 -0.1916001
vt 0.07040597 -0.1905982
vt 0.07040597 -0.2036001
vt 0.04991243 0.2235999
vt 0.04991243 0.2108
vt -0.001765013 0.2235999
vt -0.001765013 0.2108
vt -0.05344245 0.2235999
vt -0.05344245 0.2108
vt -0.27432 -0.4700001
vt 0.2376799 -0.5000001
vt 0.2376799 -0.4700001
vt -0.391895 -0.5000001
vt -0.391895 -0.4700001
vt -0.3066019 -0.5000001
vt -0.3262849 -0.4700001
vt -0.3066019 -0.3380001
vt -0.3262849 -0.3200001
vt -0.195065 -0.3200001
vt -0.214748 -0.3380001
vt -0.195065 -0.4700001
vt -0.214748 -0.5000001
vt 0.395425 -0.4700001
vt 0.395425 -0.5000001
vt 0.310132 -0.3380001
vt 0.2314 -0.3500001
vt 0.218278 -0.3380001
vt 0.2314 -0.4100001
vt 0.218278 -0.4220001
vt 0.29701 -0.4100001
vt 0.29701 -0.3500001
vt 0.310132 -0.4220001
vt -0.218278 0.26152
vt -0.310132 0.26152
vt -0.218278 0.27432
vt -0.310132 0.27432
vt -0.218278 -0.26152
vt -0.218278 -0.27432
vt -0.310132 -0.26152
vt -0.310132 -0.27432
vt 0.329815 -0.3200001
vt 0.198595 -0.3200001
vt 0.198595 -0.4400001
vt 0.329815 -0.4400001
vt 0.22488 -0.5000001
vt 0.2440799 -0.5000001
vt 0.2440799 -0.3380001
vt -0.22488 -0.5000001
vt -0.2440799 -0.3380001
vt -0.2440799 -0.5000001
vt -0.06384498 -0.4700001
vt -0.06384498 -0.5000001
vt -0.2376799 -0.3200001
vt -0.2440799 -0.3200001
vt 0.067375 -0.4700001
vt 0.067375 -0.5000001
vt 0.2376799 -0.3200001
vt 0.2440799 -0.3200001
vt 0.06384498 -0.2376799
vt 0.06384498 -0.2440799
vt -0.067375 -0.2376799
vt -0.067375 -0.2440799
vt -0.04769201 -0.5000001
vt -0.067375 -0.5000001
vt -0.04769201 -0.3380001
vt -0.067375 -0.3200001
vt 0.06384498 -0.3200001
vt 0.04416199 -0.3380001
vt 0.04416199 -0.5000001
vt -0.067375 -0.4700001
vt -0.395425 -0.4700001
vt -0.395425 -0.5000001
vt -0.185473 0.2376799
vt -0.185473 0.22488
vt -0.342937 0.2376799
vt -0.342937 0.22488
vt -0.16579 -0.3200001
vt -0.342937 -0.3380001
vt -0.36262 -0.3200001
vt -0.342937 -0.4220001
vt -0.36262 -0.4400001
vt -0.185473 -0.4220001
vt -0.185473 -0.3380001
vt -0.16579 -0.4400001
vt -0.185473 -0.22488
vt -0.185473 -0.2376799
vt -0.342937 -0.22488
vt -0.342937 -0.2376799
vt -0.329815 -0.3500001
vt -0.329815 -0.4100001
vt -0.198595 -0.4100001
vt -0.198595 -0.3500001
vt -0.01488701 -0.3680001
vt 0.01135699 -0.3680001
vt -0.01488701 -0.4700001
vt 0.01135699 -0.4700001
vt 0.4247 0.31144
vt 0.4247 0.01832002
vt -0.42823 0.31144
vt -0.42823 0.01832002
vt 0.31144 -0.2636001
vt 0.29992 -0.2780001
vt 0.01832002 -0.05750004
vt 0.01832002 -0.0800001
vt -0.2632799 -0.2780001
vt -0.2747999 -0.2636001
vt -0.4247 -0.2636001
vt 0.42823 -0.2636001
vt -0.4247 -0.2780001
vt 0.42823 -0.2780001
vt -0.42823 -0.01832002
vt -0.395425 -0.01832002
vt -0.42823 -0.29992
vt 0.4247 -0.01832002
vt 0.4247 -0.29992
vt 0.391895 -0.01832002
vt 0.4247 0.2632799
vt -0.42823 0.2632799
vt -0.42823 -0.2636001
vt 0.4247 -0.2636001
vt -0.42823 -0.2780001
vt 0.4247 -0.2780001
vt 0.15384 -0.1785501
vt 0.12824 -0.1605501
vt 0.2235999 -0.1785501
vt 0.2555999 -0.1785501
vt 0.2555999 -0.1605501
vt -0.10018 -0.1785501
vt -0.10018 -0.1605501
vt -0.001765013 -0.1115
vt -0.001765013 -0.09350004
vt 0.09664998 -0.1605501
vt 0.09664998 -0.1785501
vt -0.001765013 0.2555999
vt -0.10018 0.2555999
vt -0.10018 0.2235999
vt 0.09664998 0.2555999
vt 0.09664998 0.2235999
vt 0.09664998 -0.12824
vt 0.09664998 -0.2555999
vt -0.001765013 -0.03287997
vt -0.001765013 -0.2555999
vt -0.10018 -0.2555999
vt -0.10018 -0.12824
vt -0.15384 -0.1785501
vt -0.2235999 -0.1785501
vt -0.12824 -0.1605501
vt -0.2555999 -0.1605501
vt -0.2555999 -0.1785501
vt 0.10018 -0.2276001
vt 0.10018 -0.1605501
vt 0.10018 -0.1785501
vt 0.09664998 -0.2235999
vt 0.09664998 -0.15384
vt 0.4247 -0.2747999
vt -0.10018 -0.2235999
vt -0.42823 -0.2747999
vt -0.29992 -0.2780001
vt -0.31144 -0.2636001
vt -0.01832002 -0.0800001
vt -0.01832002 -0.05750004
vt 0.2632799 -0.2780001
vt 0.2747999 -0.2636001
vt 0.27432 -0.2600001
vt -0.2376799 -0.2600001
vt -0.2235999 -0.2276001
vt -0.10018 -0.2276001
vt 0.09664998 -0.2276001
vt 0.2235999 -0.2276001
vt -0.27432 -0.2600001
vt 0.2376799 -0.2600001
vt 0.395425 -0.2600001
vt -0.391895 -0.2600001
vt 0.391895 -0.2600001
vt -0.395425 -0.2600001

usemtl border(Clone)

f 3/3/1 2/2/1 1/1/1
f 2/2/1 3/3/1 4/4/1
f 3/7/2 6/6/2 5/5/2
f 6/6/2 3/7/2 1/8/2
f 8/11/3 6/10/3 7/9/3
f 6/10/3 8/11/3 5/12/3
f 11/15/4 10/14/4 9/13/4
f 11/15/4 12/16/4 10/14/4
f 13/17/4 12/16/4 11/15/4
f 12/16/4 13/17/4 14/18/4
f 15/19/4 9/13/4 10/14/4
f 14/18/4 9/13/4 15/19/4
f 14/18/4 16/20/4 9/13/4
f 16/20/4 14/18/4 13/17/4
f 19/23/4 18/22/4 17/21/4
f 18/22/4 19/23/4 20/24/4
f 13/27/5 21/26/5 16/25/5
f 21/26/5 13/27/5 22/28/5
f 21/31/3 9/30/3 16/29/3
f 9/30/3 21/31/3 23/32/3
f 24/35/2 9/34/2 23/33/2
f 9/34/2 24/35/2 11/36/2
f 24/39/1 13/38/1 11/37/1
f 13/38/1 24/39/1 22/40/1
f 27/43/2 26/42/2 25/41/2
f 29/46/2 28/45/2 19/44/2
f 2/8/2 31/48/2 30/47/2
f 31/48/2 2/8/2 32/49/2
f 32/49/2 2/8/2 26/42/2
f 26/42/2 2/8/2 25/41/2
f 25/41/2 2/8/2 33/50/2
f 33/50/2 2/8/2 28/45/2
f 28/45/2 2/8/2 19/44/2
f 19/44/2 2/8/2 4/7/2
f 19/44/2 4/7/2 20/51/2
f 20/51/2 4/7/2 8/5/2
f 20/51/2 8/5/2 34/52/2
f 34/52/2 8/5/2 7/6/2
f 36/54/4 24/15/4 35/53/4
f 36/54/4 22/17/4 24/15/4
f 37/55/4 22/17/4 36/54/4
f 22/17/4 37/55/4 21/20/4
f 23/13/4 35/53/4 24/15/4
f 21/20/4 35/53/4 23/13/4
f 21/20/4 38/56/4 35/53/4
f 38/56/4 21/20/4 37/55/4
f 18/58/1 34/2/1 39/57/1
f 34/2/1 18/58/1 20/59/1
f 42/62/5 41/61/5 40/60/5
f 41/61/5 42/62/5 43/63/5
f 46/66/2 45/65/2 44/64/2
f 45/65/2 46/66/2 47/67/2
f 49/70/6 45/69/6 48/68/6
f 49/70/6 42/71/6 45/69/6
f 50/72/6 42/71/6 49/70/6
f 42/71/6 50/72/6 43/73/6
f 47/74/6 48/68/6 45/69/6
f 43/73/6 48/68/6 47/74/6
f 43/73/6 51/75/6 48/68/6
f 51/75/6 43/73/6 50/72/6
f 40/77/3 45/10/3 42/76/3
f 45/10/3 40/77/3 44/12/3
f 44/69/6 52/78/6 46/74/6
f 44/69/6 53/79/6 52/78/6
f 40/71/6 53/79/6 44/69/6
f 53/79/6 40/71/6 54/80/6
f 55/81/6 46/74/6 52/78/6
f 54/80/6 46/74/6 55/81/6
f 54/80/6 41/73/6 46/74/6
f 41/73/6 54/80/6 40/71/6
f 46/3/1 43/82/1 47/1/1
f 43/82/1 46/3/1 41/83/1
f 58/86/5 57/85/5 56/84/5
f 57/85/5 58/86/5 59/87/5
f 62/90/4 61/89/4 60/88/4
f 62/90/4 59/91/4 61/89/4
f 63/92/4 59/91/4 62/90/4
f 59/91/4 63/92/4 57/93/4
f 61/89/4 64/94/4 60/88/4
f 57/93/4 64/94/4 61/89/4
f 63/92/4 64/94/4 57/93/4
f 64/94/4 63/92/4 65/95/4
f 61/98/7 56/97/7 57/96/7
f 56/97/7 61/98/7 66/99/7
f 59/100/8 66/99/8 61/98/8
f 66/99/8 59/100/8 58/101/8
f 31/103/3 67/102/3 30/9/3
f 67/102/3 31/103/3 68/104/3
f 7/107/6 39/106/6 34/105/6
f 39/106/6 7/107/6 69/108/6
f 6/109/6 69/108/6 7/107/6
f 69/108/6 6/109/6 70/110/6
f 70/110/6 6/109/6 71/111/6
f 1/112/6 71/111/6 6/109/6
f 1/112/6 72/113/6 71/111/6
f 2/114/6 72/113/6 1/112/6
f 2/114/6 67/115/6 72/113/6
f 67/115/6 2/114/6 30/116/6
f 75/3/1 74/82/1 73/1/1
f 74/82/1 75/3/1 76/83/1
f 78/119/6 77/118/6 75/117/6
f 78/119/6 79/120/6 77/118/6
f 80/121/6 79/120/6 78/119/6
f 79/120/6 80/121/6 81/122/6
f 82/123/6 75/117/6 77/118/6
f 81/122/6 75/117/6 82/123/6
f 81/122/6 76/124/6 75/117/6
f 76/124/6 81/122/6 80/121/6
f 83/127/5 76/126/5 80/125/5
f 76/126/5 83/127/5 74/128/5
f 75/131/2 84/130/2 78/129/2
f 84/130/2 75/131/2 73/132/2
f 80/77/3 84/10/3 83/76/3
f 84/10/3 80/77/3 78/12/3
f 86/134/6 84/119/6 85/133/6
f 86/134/6 83/121/6 84/119/6
f 87/135/6 83/121/6 86/134/6
f 83/121/6 87/135/6 74/124/6
f 73/117/6 85/133/6 84/119/6
f 74/124/6 85/133/6 73/117/6
f 74/124/6 88/136/6 85/133/6
f 88/136/6 74/124/6 87/135/6
f 28/138/3 89/30/3 33/137/3
f 89/30/3 28/138/3 90/139/3
f 92/141/1 25/140/1 91/37/1
f 25/140/1 92/141/1 27/142/1
f 93/70/1 19/144/1 17/143/1
f 94/146/1 19/59/1 93/145/1
f 19/59/1 94/146/1 29/142/1
f 32/148/3 96/68/3 95/147/3
f 26/138/3 96/149/3 32/103/3
f 96/149/3 26/138/3 97/150/3
f 92/43/2 89/50/2 90/45/2
f 89/50/2 92/43/2 91/41/2
f 96/153/5 94/152/5 93/151/5
f 94/152/5 96/153/5 97/154/5
f 92/157/4 26/156/4 27/155/4
f 26/156/4 92/157/4 97/158/4
f 97/158/4 92/157/4 94/159/4
f 90/160/4 94/159/4 92/157/4
f 28/161/4 94/159/4 90/160/4
f 94/159/4 28/161/4 29/23/4
f 68/163/4 32/156/4 95/162/4
f 32/156/4 68/163/4 31/164/4
f 100/167/2 99/166/2 98/165/2
f 99/166/2 100/167/2 101/168/2
f 103/171/4 100/170/4 102/169/4
f 103/171/4 104/172/4 100/170/4
f 105/173/4 104/172/4 103/171/4
f 104/172/4 105/173/4 106/174/4
f 98/175/4 102/169/4 100/170/4
f 106/174/4 102/169/4 98/175/4
f 106/174/4 107/176/4 102/169/4
f 107/176/4 106/174/4 105/173/4
f 100/39/1 108/38/1 101/37/1
f 108/38/1 100/39/1 104/40/1
f 108/179/5 106/178/5 109/177/5
f 106/178/5 108/179/5 104/180/5
f 106/31/3 99/30/3 109/29/3
f 99/30/3 106/31/3 98/32/3
f 101/170/4 110/181/4 99/175/4
f 101/170/4 111/182/4 110/181/4
f 108/172/4 111/182/4 101/170/4
f 111/182/4 108/172/4 112/183/4
f 113/184/4 99/175/4 110/181/4
f 112/183/4 99/175/4 113/184/4
f 112/183/4 109/174/4 99/175/4
f 109/174/4 112/183/4 108/172/4

usemtl window(Clone)

f 12/16/4 15/19/4 10/14/4
f 15/19/4 12/16/4 14/18/4
f 53/79/6 55/81/6 52/78/6
f 55/81/6 53/79/6 54/80/6
f 66/89/4 58/91/4 56/93/4
f 79/120/6 82/123/6 77/118/6
f 82/123/6 79/120/6 81/122/6
f 116/187/4 115/186/4 114/185/4
f 115/186/4 116/187/4 117/188/4
f 111/182/4 113/184/4 110/181/4
f 113/184/4 111/182/4 112/183/4

usemtl roof(Clone)

f 120/191/9 119/190/9 118/189/9
f 119/190/9 120/191/9 121/192/9
f 119/195/1 122/194/1 118/193/1
f 119/195/1 123/196/1 122/194/1
f 119/195/1 124/197/1 123/196/1
f 124/197/1 119/195/1 125/198/1
f 122/201/10 120/200/10 118/199/10
f 120/200/10 122/201/10 126/202/10
f 126/205/11 128/204/11 127/203/11
f 128/204/11 126/205/11 129/47/11
f 130/208/11 122/207/11 123/206/11
f 131/52/11 122/207/11 130/208/11
f 129/47/11 122/207/11 131/52/11
f 122/207/11 129/47/11 126/205/11
f 123/206/12 132/51/12 130/208/12
f 124/209/12 132/51/12 123/206/12
f 124/209/12 133/48/12 132/51/12
f 133/48/12 124/209/12 134/210/12
f 134/210/12 128/204/12 133/48/12
f 128/204/12 134/210/12 127/203/12
f 134/213/13 125/212/13 135/211/13
f 125/212/13 134/213/13 124/214/13
f 138/217/3 137/216/3 136/215/3
f 139/218/3 137/216/3 138/217/3
f 137/216/3 139/218/3 140/219/3
f 141/222/4 140/221/4 139/220/4
f 140/221/4 141/222/4 142/223/4
f 141/222/4 143/224/4 142/223/4
f 143/224/4 141/222/4 144/225/4
f 139/227/8 145/98/8 141/226/8
f 145/98/8 139/227/8 138/228/8
f 141/226/7 146/230/7 144/229/7
f 146/230/7 141/226/7 145/98/7
f 148/233/14 143/232/14 147/231/14
f 143/232/14 148/233/14 142/234/14
f 148/233/15 140/235/15 142/234/15
f 140/235/15 148/233/15 137/236/15
f 147/239/1 146/238/1 149/237/1
f 143/240/1 146/238/1 147/239/1
f 146/238/1 143/240/1 144/241/1
f 136/244/16 137/243/16 150/242/16
f 119/190/16 149/246/16 151/245/16
f 119/190/16 147/231/16 149/246/16
f 119/190/16 148/233/16 147/231/16
f 119/190/16 151/245/16 125/247/16
f 121/192/16 148/233/16 119/190/16
f 148/233/16 121/192/16 137/236/16
f 150/248/16 125/247/16 151/245/16
f 121/192/16 150/248/16 137/236/16
f 150/248/16 135/249/16 125/247/16
f 135/249/16 150/248/16 121/192/16
f 127/252/3 120/251/3 126/250/3
f 127/252/3 121/253/3 120/251/3
f 134/254/3 121/253/3 127/252/3
f 121/253/3 134/254/3 135/255/3

usemtl door(Clone)

f 8/107/6 3/112/6 5/109/6
f 3/112/6 8/107/6 4/114/6
f 91/157/4 114/185/4 89/160/4
f 91/157/4 116/187/4 114/185/4
f 25/155/4 116/187/4 91/157/4
f 116/187/4 25/155/4 117/188/4
f 115/186/4 89/160/4 114/185/4
f 117/188/4 89/160/4 115/186/4
f 117/188/4 33/161/4 89/160/4
f 33/161/4 117/188/4 25/155/4

usemtl _defaultMat(Clone)

f 130/196/1 39/57/1 131/256/1
f 132/257/1 39/57/1 130/196/1
f 39/57/1 132/257/1 18/58/1
f 149/237/1 146/238/1 151/258/1
f 138/220/4 60/88/4 145/222/4
f 138/220/4 62/90/4 60/88/4
f 138/220/4 63/92/4 62/90/4
f 63/92/4 150/259/4 65/95/4
f 150/259/4 63/92/4 138/220/4
f 64/94/4 146/225/4 60/88/4
f 60/88/4 146/225/4 145/222/4
f 65/95/4 146/225/4 64/94/4
f 65/95/4 151/260/4 146/225/4
f 151/260/4 65/95/4 150/259/4
f 136/215/3 150/261/3 138/217/3
f 67/102/3 128/252/3 129/262/3
f 68/104/3 128/252/3 67/102/3
f 128/252/3 68/104/3 133/263/3
f 48/68/6 87/135/6 86/134/6
f 51/75/6 87/135/6 48/68/6
f 87/135/6 51/75/6 88/136/6
f 71/111/6 50/72/6 49/70/6
f 51/75/6 72/113/6 88/136/6
f 50/72/6 72/113/6 51/75/6
f 72/113/6 50/72/6 71/111/6
f 131/265/6 70/110/6 129/264/6
f 39/106/6 70/110/6 131/265/6
f 70/110/6 39/106/6 69/108/6
f 71/111/6 129/264/6 70/110/6
f 49/70/6 129/264/6 71/111/6
f 48/68/6 129/264/6 49/70/6
f 86/134/6 129/264/6 48/68/6
f 85/133/6 129/264/6 86/134/6
f 88/136/6 129/264/6 85/133/6
f 88/136/6 67/115/6 129/264/6
f 67/115/6 88/136/6 72/113/6
f 93/159/4 37/55/4 36/54/4
f 37/55/4 17/21/4 38/56/4
f 17/21/4 37/55/4 93/159/4
f 107/176/4 96/158/4 102/169/4
f 107/176/4 95/162/4 96/158/4
f 95/162/4 107/176/4 68/163/4
f 133/267/4 103/171/4 132/266/4
f 133/267/4 105/173/4 103/171/4
f 105/173/4 68/163/4 107/176/4
f 68/163/4 105/173/4 133/267/4
f 102/169/4 132/266/4 103/171/4
f 96/158/4 132/266/4 102/169/4
f 93/159/4 132/266/4 96/158/4
f 36/54/4 132/266/4 93/159/4
f 35/53/4 132/266/4 36/54/4
f 38/56/4 132/266/4 35/53/4
f 38/56/4 18/22/4 132/266/4
f 18/22/4 38/56/4 17/21/4

