# Created by Kenney (www.kenney.nl)

mtllib industry_ore.mtl

g mergedBlocks

v 0.001600027 -0.5000001 -0.4100001
v 0.1528 -0.5000001 -0.332652
v 0.1528 -0.407295 -0.332652
v 0.2588368 -0.5000001 -0.2179212
v 0.001600027 -0.3422807 -0.3495137
v 0.1528 -0.407295 0.3226518
v 0.001600027 -0.3422807 0.3395135
v 0.09504676 -0.257295 0.1974999
v 0.2462468 -0.3500001 0.1201518
v 0.1605811 -0.2448048 -0.005000109
v 0.2588368 -0.5000001 0.207921
v 0.09504676 -0.257295 -0.2075001
v -0.0918467 -0.257295 -0.2075001
v 0.001600027 -0.2 -0.005000108
v -0.157381 -0.2448048 -0.005000109
v 0.2462468 -0.3500001 -0.130152
v 0.304 -0.5000001 -0.005000114
v -0.2430467 -0.3500001 -0.130152
v -0.2430467 -0.3500001 0.1201518
v -0.3008 -0.5000001 -0.005000114
v -0.2556368 -0.5000001 -0.2179212
v -0.2556368 -0.5000001 0.207921
v -0.1496 -0.407295 -0.332652
v -0.1496 -0.5000001 -0.332652
v -0.1496 -0.5000001 0.3226518
v -0.1496 -0.407295 0.3226518
v 0.001600027 -0.5000001 0.3999999
v -0.0918467 -0.257295 0.1974999
v 0.1528 -0.5000001 0.3226518

vn 0.3283608 0.2290184 -0.9163677
vn 0.6104598 0 -0.7920472
vn 0.5066692 0.1132794 -0.854666
vn 0.7343839 0 -0.6787344
vn 0.2499043 0.3467155 -0.9040664
vn 0.6231703 0.5664837 0.5392171
vn 0.3620647 0.6754158 0.642435
vn 0.5452761 0.7062963 0.4514639
vn 0.691018 0.6010628 0.4015191
vn 0.5935865 0.7683097 0.2394894
vn 0.8116297 0.3442724 0.4719467
vn 0 0.8580852 -0.5135074
vn 0.09215828 0.9461814 -0.3102383
vn -0.09215828 0.9461814 -0.3102383
vn 0 0.9809213 -0.1944055
vn 0.2683678 0.9522517 -0.1455855
vn -0.2683678 0.9522517 -0.1455855
vn 0.7754118 0.6314559 0
vn 0.9111809 0.4065556 -0.06679621
vn 0.9111809 0.4065556 0.06679622
vn 0.9655038 0.2603891 0
vn 0.9585851 0.1994304 -0.2033277
vn 0.9585851 0.1994304 0.2033277
vn -0.9111809 0.4065556 -0.06679621
vn -0.7754118 0.6314559 0
vn -0.9111809 0.4065556 0.06679622
vn -0.9655038 0.2603891 0
vn -0.9585851 0.1994304 -0.2033277
vn -0.9585851 0.1994304 0.2033277
vn -0.5452761 0.7062963 -0.4514639
vn -0.5935865 0.7683097 -0.2394894
vn -0.691018 0.6010628 -0.4015191
vn -0.6231703 0.5664837 -0.5392171
vn -0.8116297 0.3442724 -0.4719467
vn -0.3620647 0.6754158 -0.642435
vn -0.6104598 0 -0.7920472
vn -0.3283608 0.2290184 -0.9163677
vn -0.5066692 0.1132794 -0.854666
vn -0.7343839 0 -0.6787344
vn -0.2499043 0.3467155 -0.9040664
vn -0.6104598 0 0.7920472
vn -0.7343839 0 0.6787344
vn -0.5066692 0.1132793 0.854666
vn -0.3283608 0.2290184 0.9163677
vn -0.2499043 0.3467155 0.9040664
vn 0.2683678 0.9522517 0.1455856
vn 0.09215827 0.9461812 0.3102383
vn 0 0.9809213 0.1944056
vn -0.09215827 0.9461812 0.3102383
vn -0.2683678 0.9522517 0.1455856
vn 0 0.8580852 0.5135074
vn -0.3620647 0.6754158 0.642435
vn -0.6231703 0.5664837 0.5392171
vn -0.5452761 0.7062963 0.4514639
vn -0.691018 0.6010628 0.4015191
vn -0.8116297 0.3442724 0.4719467
vn -0.5935865 0.7683097 0.2394894
vn 0.5066692 0.1132793 0.854666
vn 0.3283608 0.2290184 0.9163677
vn 0.2499043 0.3467155 0.9040664
vn 0.6104598 0 0.7920472
vn 0.7343839 0 0.6787344
vn 0.6231703 0.5664837 -0.5392171
vn 0.691018 0.6010628 -0.4015191
vn 0.5452761 0.7062963 -0.4514639
vn 0.5935865 0.7683097 -0.2394894
vn 0.3620647 0.6754158 -0.642435
vn 0.8116297 0.3442724 -0.4719467
vn 0 -1 0

vt -0.001600027 -0.5000001
vt -0.1528 -0.5000001
vt -0.1528 -0.407295
vt 0.332652 -0.5000001
vt 0.2179212 -0.5000001
vt 0.332652 -0.407295
vt -0.001600027 -0.3422807
vt -0.1528 0.3226518
vt -0.001600027 0.3395135
vt -0.09504676 0.1974999
vt -0.2462468 0.1201518
vt -0.1605811 -0.005000109
vt -0.1201518 -0.3500001
vt -0.207921 -0.5000001
vt -0.3226518 -0.407295
vt -0.001600027 -0.3495137
vt -0.09504676 -0.2075001
vt 0.0918467 -0.2075001
vt -0.001600027 -0.005000108
vt 0.157381 -0.005000109
vt 0.005000109 -0.2448048
vt 0.130152 -0.3500001
vt 0.005000114 -0.5000001
vt -0.130152 -0.3500001
vt -0.005000109 -0.2448048
vt 0.1201518 -0.3500001
vt -0.005000114 -0.5000001
vt -0.2179212 -0.5000001
vt 0.207921 -0.5000001
vt 0.2430467 -0.130152
vt 0.1496 -0.332652
vt -0.332652 -0.407295
vt 0.1496 -0.5000001
vt 0.1496 -0.407295
vt -0.332652 -0.5000001
vt 0.3226518 -0.5000001
vt 0.3226518 -0.407295
vt 0.001600027 -0.5000001
vt -0.1496 -0.5000001
vt -0.1496 -0.407295
vt 0.001600027 -0.3422807
vt 0.0918467 0.1974999
vt 0.1496 0.3226518
vt 0.2430467 0.1201518
vt 0.1528 -0.407295
vt 0.1528 -0.5000001
vt -0.3226518 -0.5000001
vt -0.1528 -0.332652
vt -0.2462468 -0.130152
vt -0.304 0.005000114
vt -0.2588368 0.2179212
vt -0.2588368 -0.207921
vt -0.1528 -0.3226518
vt -0.1528 0.332652
vt -0.001600027 -0.3999999
vt -0.001600027 0.4100001
vt 0.1496 -0.3226518
vt 0.1496 0.332652
vt 0.2556368 -0.207921
vt 0.2556368 0.2179212
vt 0.3008 0.005000114

usemtl pavement(Clone)

f 3/3/3 2/2/2 1/1/1
f 3/6/3 4/5/4 2/4/2
f 5/7/5 3/3/3 1/1/1
f 8/10/8 7/9/7 6/8/6
f 8/10/8 6/8/6 9/11/9
f 8/10/8 9/11/9 10/12/10
f 6/15/6 11/14/11 9/13/9
f 13/18/14 12/17/13 5/16/12
f 13/18/14 14/19/15 12/17/13
f 14/19/15 10/12/16 12/17/13
f 15/20/17 14/19/15 13/18/14
f 9/13/20 16/22/19 10/21/18
f 9/13/20 17/23/21 16/22/19
f 17/23/21 4/5/22 16/22/19
f 11/14/23 17/23/21 9/13/20
f 19/26/26 15/25/25 18/24/24
f 19/26/26 18/24/24 20/27/27
f 20/27/27 18/24/24 21/28/28
f 22/29/29 19/26/26 20/27/27
f 18/30/32 15/20/31 13/18/30
f 18/30/32 13/18/30 23/31/33
f 18/24/32 23/32/33 21/28/34
f 13/18/30 5/16/35 23/31/33
f 23/34/38 1/1/37 24/33/36
f 23/32/38 24/35/36 21/28/39
f 5/7/40 1/1/37 23/34/38
f 26/37/43 22/29/42 25/36/41
f 26/40/43 25/39/41 27/38/44
f 7/41/45 26/40/43 27/38/44
f 14/19/48 8/10/47 10/12/46
f 28/42/49 8/10/47 14/19/48
f 15/20/50 28/42/49 14/19/48
f 28/42/49 7/9/51 8/10/47
f 28/42/54 26/43/53 7/9/52
f 28/42/54 19/44/55 26/43/53
f 26/37/53 19/26/55 22/29/56
f 19/44/55 28/42/54 15/20/57
f 7/41/60 27/38/59 6/45/58
f 6/45/58 27/38/59 29/46/61
f 6/15/58 29/47/61 11/14/62
f 12/17/65 16/49/64 3/48/63
f 12/17/65 10/12/66 16/49/64
f 12/17/65 3/48/63 5/16/67
f 16/22/64 4/5/68 3/6/63
f 11/52/69 4/51/69 17/50/69
f 4/51/69 11/52/69 29/53/69
f 4/51/69 29/53/69 2/54/69
f 2/54/69 29/53/69 27/55/69
f 2/54/69 27/55/69 1/56/69
f 1/56/69 27/55/69 25/57/69
f 1/56/69 25/57/69 24/58/69
f 24/58/69 25/57/69 22/59/69
f 24/58/69 22/59/69 21/60/69
f 21/60/69 22/59/69 20/61/69

